<svg width="14px" height="15px" viewBox="0 0 14 15" version="1.1" xmlns="http://www.w3.org/2000/svg" xmlns:xlink="http://www.w3.org/1999/xlink">
          <g transform="translate(-330,-28)">
            <path fill="#FFF" d="M343.486624,39.6116043 C343.486624,39.3325861 343.375017,39.0535679 343.174124,38.8526748 L339.89287,35.5714209 L343.174124,32.290167 C343.375017,32.0892739 343.486624,31.8102557 343.486624,31.5312375 C343.486624,31.2522193 343.375017,30.9732011 343.174124,30.772308 L341.656265,29.2544491 C341.455372,29.053556 341.176354,28.9419487 340.897336,28.9419487 C340.618317,28.9419487 340.339299,29.053556 340.138406,29.2544491 L336.857152,32.535703 L333.575898,29.2544491 C333.375005,29.053556 333.095987,28.9419487 332.816969,28.9419487 C332.537951,28.9419487 332.258932,29.053556 332.058039,29.2544491 L330.54018,30.772308 C330.339287,30.9732011 330.22768,31.2522193 330.22768,31.5312375 C330.22768,31.8102557 330.339287,32.0892739 330.54018,32.290167 L333.821434,35.5714209 L330.54018,38.8526748 C330.339287,39.0535679 330.22768,39.3325861 330.22768,39.6116043 C330.22768,39.8906225 330.339287,40.1696407 330.54018,40.3705338 L332.058039,41.8883927 C332.258932,42.0892858 332.537951,42.2008931 332.816969,42.2008931 C333.095987,42.2008931 333.375005,42.0892858 333.575898,41.8883927 L336.857152,38.6071388 L340.138406,41.8883927 C340.339299,42.0892858 340.618317,42.2008931 340.897336,42.2008931 C341.176354,42.2008931 341.455372,42.0892858 341.656265,41.8883927 L343.174124,40.3705338 C343.375017,40.1696407 343.486624,39.8906225 343.486624,39.6116043 Z"></path>
          </g>
        </svg>