<svg width="31px" height="27px" viewBox="0 0 31 27" version="1.1" xmlns="http://www.w3.org/2000/svg" xmlns:xlink="http://www.w3.org/1999/xlink">
  <g transform="translate(-43,-16)">
    <path fill="#065466" d="M67.1428793,34.6428567 L67.1428793,26.0714179 C66.908504,26.3392754 66.6518073,26.5848114 66.3727891,26.8080259 C64.776805,28.035706 63.1696603,29.2857075 61.6183191,30.5803519 C60.7812646,31.2834777 59.7433169,32.1428537 58.5826012,32.1428537 L58.5602798,32.1428537 C57.3995641,32.1428537 56.3616164,31.2834777 55.5245619,30.5803519 C53.9732207,29.2857075 52.366076,28.035706 50.7700919,26.8080259 C50.4910737,26.5848114 50.234377,26.3392754 50.0000017,26.0714179 L50.0000017,34.6428567 C50.0000017,34.8325891 50.1674126,35 50.357145,35 L66.785736,35 C66.9754684,35 67.1428793,34.8325891 67.1428793,34.6428567 Z M67.1428793,22.912932 C67.1428793,22.6339138 67.2098436,22.1428418 66.785736,22.1428418 L50.357145,22.1428418 C50.1674126,22.1428418 50.0000017,22.3102527 50.0000017,22.4999851 C50.0000017,23.772308 50.6361632,24.8772201 51.6406287,25.6696317 C53.1361662,26.8415081 54.6317037,28.0245453 56.1160804,29.2075824 C56.707599,29.6874937 57.7790288,30.7142806 58.5602798,30.7142806 L58.5826012,30.7142806 C59.3638522,30.7142806 60.435282,29.6874937 61.0268006,29.2075824 C62.5111773,28.0245453 64.0067148,26.8415081 65.5022523,25.6696317 C66.2276996,25.1004346 67.1428793,23.8615939 67.1428793,22.912932 Z M68.5714524,22.4999851 L68.5714524,34.6428567 C68.5714524,35.6250007 67.76788,36.4285731 66.785736,36.4285731 L50.357145,36.4285731 C49.375001,36.4285731 48.5714286,35.6250007 48.5714286,34.6428567 L48.5714286,22.4999851 C48.5714286,21.5178411 49.375001,20.7142687 50.357145,20.7142687 L66.785736,20.7142687 C67.76788,20.7142687 68.5714524,21.5178411 68.5714524,22.4999851 Z"></path>
  </g>
</svg>