<?xml version="1.0" encoding="UTF-8" standalone="no"?>
<svg width="87px" height="87px" viewBox="0 0 87 87" version="1.1" xmlns="http://www.w3.org/2000/svg" xmlns:xlink="http://www.w3.org/1999/xlink">
    <!-- Generator: Sketch 48.1 (47250) - http://www.bohemiancoding.com/sketch -->
    <title>paint-detailis-icon</title>
    <desc>Created with Sketch.</desc>
    <defs></defs>
    <g id="information_how-it-works-copy" stroke="none" stroke-width="1" fill="none" fill-rule="evenodd" transform="translate(-677.000000, -242.000000)">
        <g id="Learn-More---How-It-Works" transform="translate(526.000000, 147.000000)">
            <g id="Group-12" transform="translate(41.000000, 6.000000)">
                <g id="Group-3" transform="translate(13.000000, 89.000000)">
                    <g id="paint-detailis-icon" transform="translate(97.000000, 0.000000)">
                        <circle id="Oval" fill="#45D1A6" cx="43.5" cy="43.5" r="43.5"></circle>
                        <g id="paint" transform="translate(29.000000, 14.000000)" fill="#FFFFFF" fill-rule="nonzero">
                            <path d="M14.3595707,39.8641304 C14.0304114,39.8641304 13.783542,40.1086957 13.783542,40.4347826 L13.783542,56.5353261 C13.783542,57.798913 12.7549195,58.8179348 11.4794275,58.8179348 C10.2039356,58.8179348 9.17531306,57.798913 9.17531306,56.5353261 L9.17531306,35.7065217 C9.17531306,33.1793478 7.6529517,30.8967391 5.26654741,29.9184783 L3.70304114,29.2663043 C2.13953488,28.6141304 1.11091234,27.1059783 1.11091234,25.3940217 L1.11091234,14.8369565 L9.25760286,14.8369565 C9.58676208,14.8369565 9.83363148,14.5923913 9.83363148,14.2663043 C9.83363148,13.9402174 9.58676208,13.6956522 9.25760286,13.6956522 L1.15205725,13.6956522 L1.15205725,1.14130435 L3.49731664,1.14130435 L3.49731664,6.52173913 C3.53846154,6.84782609 3.78533095,7.0923913 4.11449016,7.0923913 C4.44364937,7.0923913 4.69051878,6.84782609 4.69051878,6.52173913 L4.69051878,1.14130435 L7.03577818,1.14130435 L7.03577818,6.52173913 C7.03577818,6.84782609 7.28264758,7.0923913 7.6118068,7.0923913 C7.94096601,7.0923913 8.18783542,6.84782609 8.18783542,6.52173913 L8.18783542,1.14130435 L10.5330948,1.14130435 L10.5330948,6.52173913 C10.5330948,6.84782609 10.7799642,7.0923913 11.1091234,7.0923913 C11.4382826,7.0923913 11.6851521,6.84782609 11.6851521,6.52173913 L11.6851521,1.14130435 L14.0304114,1.14130435 L14.0304114,6.52173913 C14.0304114,6.84782609 14.2772809,7.0923913 14.6064401,7.0923913 C14.9355993,7.0923913 15.1824687,6.84782609 15.1824687,6.52173913 L15.1824687,1.14130435 L17.5277281,1.14130435 L17.5277281,6.52173913 C17.5277281,6.84782609 17.7745975,7.0923913 18.1037567,7.0923913 C18.4329159,7.0923913 18.6797853,6.84782609 18.6797853,6.52173913 L18.6797853,1.14130435 L21.8479428,1.14130435 L21.8479428,11.9836957 C21.8479428,12.3097826 22.0948122,12.5543478 22.4239714,12.5543478 C22.7531306,12.5543478 23,12.3097826 23,11.9836957 L23,0.570652174 C23,0.244565217 22.7531306,0 22.4239714,0 L0.576028623,0 C0.24686941,0 0,0.244565217 0,0.570652174 L0,14.2255435 C0,14.2255435 0,14.2255435 0,14.2255435 L0,25.3940217 C0,27.5543478 1.31663685,29.5108696 3.33273703,30.326087 L4.89624329,30.9782609 C6.83005367,31.7934783 8.10554562,33.6277174 8.10554562,35.7065217 L8.10554562,56.576087 C8.10554562,58.451087 9.66905188,60 11.5617174,60 C13.4543828,60 15.0178891,58.451087 15.0178891,56.576087 L15.0178891,40.4755435 C14.9767442,40.1494565 14.6887299,39.8641304 14.3595707,39.8641304 Z" id="Shape"></path>
                            <path d="M28.4220183,14 L11.5779817,14 C11.2477064,14 11,14.2427441 11,14.5664028 L11,24.6402814 L11,25.2066843 L11,33.4599824 C11,35.1591909 12.0321101,36.6965699 13.6422018,37.3438874 L14.8394495,37.8293755 C16.2844037,38.4362357 17.1926606,39.7713281 17.1926606,41.3087071 L17.1926606,57.2489006 C17.1926606,58.7458223 18.4311927,60 20,60 C21.5275229,60 22.8073394,58.7862797 22.8073394,57.2489006 L22.8073394,41.3491645 C22.8073394,39.8117854 23.7568807,38.4362357 25.1605505,37.8698329 L26.3577982,37.3843448 C27.9678899,36.7370273 29,35.1996482 29,33.5004398 L29,25.2471416 L29,24.6807388 L29,14.5664028 C29,14.2832014 28.7522936,14 28.4220183,14 Z M28,33.6744186 C28,34.9265606 27.2460733,36.0171359 26.0314136,36.501836 L24.8167539,36.9865361 C22.8900524,37.753978 21.6753927,39.5312118 21.6753927,41.5104039 L21.6753927,57.3843329 C21.6753927,58.2729498 20.921466,59 20,59 C19.078534,59 18.3246073,58.2729498 18.3246073,57.3843329 L18.3246073,41.5104039 C18.3246073,39.5312118 17.1099476,37.753978 15.1832461,36.9865361 L13.9685864,36.501836 C12.7958115,36.0171359 12,34.9265606 12,33.6744186 L12,26 L27.9162304,26 L27.9162304,33.6744186 L28,33.6744186 Z M28,25 L12,25 L12,15 L13.6,15 L13.6,19.1702128 C13.6,19.5106383 13.8526316,19.7659574 14.1894737,19.7659574 C14.5263158,19.7659574 14.7789474,19.5106383 14.7789474,19.1702128 L14.7789474,15 L16.3368421,15 L16.3368421,19.1702128 C16.3368421,19.5106383 16.5894737,19.7659574 16.9263158,19.7659574 C17.2631579,19.7659574 17.5157895,19.5106383 17.5157895,19.1702128 L17.5157895,15 L19.0736842,15 L19.0736842,19.1702128 C19.0736842,19.5106383 19.3263158,19.7659574 19.6631579,19.7659574 C20,19.7659574 20.2526316,19.5106383 20.2526316,19.1702128 L20.2526316,15 L21.8105263,15 L21.8105263,19.1702128 C21.8105263,19.5106383 22.0631579,19.7659574 22.4,19.7659574 C22.7368421,19.7659574 22.9894737,19.5106383 22.9894737,19.1702128 L22.9894737,15 L24.5473684,15 L24.5473684,19.1702128 C24.5473684,19.5106383 24.8,19.7659574 25.1368421,19.7659574 C25.4736842,19.7659574 25.7263158,19.5106383 25.7263158,19.1702128 L25.7263158,15 L27.9157895,15 L27.9157895,25 L28,25 Z" id="Shape"></path>
                        </g>
                    </g>
                </g>
            </g>
        </g>
    </g>
</svg>