<?xml version="1.0" encoding="UTF-8" standalone="no"?>
<svg width="87px" height="87px" viewBox="0 0 87 87" version="1.1" xmlns="http://www.w3.org/2000/svg" xmlns:xlink="http://www.w3.org/1999/xlink">
    <!-- Generator: Sketch 48.1 (47250) - http://www.bohemiancoding.com/sketch -->
    <title>quotes-icon</title>
    <desc>Created with Sketch.</desc>
    <defs></defs>
    <g id="information_how-it-works-copy" stroke="none" stroke-width="1" fill="none" fill-rule="evenodd" transform="translate(-677.000000, -701.000000)">
        <g id="Learn-More---How-It-Works" transform="translate(526.000000, 147.000000)">
            <g id="Group-12" transform="translate(41.000000, 6.000000)">
                <g id="Group-10" transform="translate(0.000000, 548.000000)">
                    <g id="quotes-icon" transform="translate(110.000000, 0.000000)">
                        <circle id="Oval-Copy-2" fill="#073649" cx="43.5" cy="43.5" r="43.5"></circle>
                        <g id="quote" transform="translate(20.000000, 20.000000)" fill="#FFFFFF" fill-rule="nonzero">
                            <path d="M35.472,24.144 L37.104,24.144 C36.864,22.992 36.432,22.128 35.808,21.504 C35.184,20.88 34.368,20.496 33.312,20.352 L33.312,19.056 L32.256,19.056 L32.256,20.304 C31.728,20.352 31.2,20.448 30.72,20.688 C30.24,20.88 29.808,21.168 29.472,21.504 C29.136,21.84 28.848,22.272 28.656,22.752 C28.464,23.232 28.368,23.76 28.368,24.336 C28.368,24.912 28.464,25.392 28.608,25.776 C28.752,26.16 28.992,26.496 29.328,26.784 C29.664,27.072 30.048,27.312 30.576,27.504 C31.056,27.696 31.68,27.888 32.352,28.032 L32.352,33.12 C31.584,32.976 30.96,32.688 30.432,32.16 C29.904,31.68 29.664,30.96 29.616,30.096 L27.984,30.096 C28.08,31.44 28.512,32.496 29.28,33.264 C30.048,34.032 31.056,34.464 32.352,34.608 L32.352,36.192 L33.408,36.192 L33.408,34.608 C34.032,34.56 34.608,34.416 35.088,34.224 C35.616,34.032 36.048,33.744 36.432,33.408 C36.816,33.072 37.104,32.64 37.296,32.16 C37.488,31.68 37.632,31.104 37.632,30.48 C37.632,29.904 37.536,29.376 37.296,28.944 C37.056,28.512 36.816,28.176 36.48,27.888 C36.144,27.6 35.808,27.408 35.472,27.216 C35.136,27.072 34.8,26.928 34.56,26.88 L33.408,26.592 L33.408,21.84 C34.512,22.128 35.232,22.896 35.472,24.144 Z M32.256,26.352 C31.92,26.256 31.632,26.16 31.392,26.064 C31.104,25.968 30.912,25.824 30.672,25.632 C30.48,25.488 30.336,25.296 30.192,25.056 C30.096,24.816 30.048,24.528 30.048,24.192 C30.048,23.472 30.24,22.896 30.672,22.512 C31.104,22.128 31.632,21.936 32.256,21.84 L32.256,26.352 Z M34.32,28.704 C34.608,28.848 34.896,28.992 35.088,29.136 C35.328,29.328 35.472,29.52 35.616,29.76 C35.76,30 35.808,30.336 35.808,30.672 C35.808,31.104 35.76,31.44 35.616,31.728 C35.472,32.016 35.328,32.304 35.088,32.496 C34.848,32.688 34.608,32.832 34.32,32.928 C34.032,33.024 33.696,33.072 33.312,33.12 L33.312,28.368 C33.648,28.464 33.984,28.56 34.32,28.704 Z" id="Shape"></path>
                            <rect id="Rectangle-path" x="11.184" y="7.968" width="25.104" height="1.44"></rect>
                            <path d="M43.44,0.24 L3.984,0.24 L0.288,0.24 L0.288,1.68 L3.312,1.68 L3.312,43.296 C3.312,43.536 3.408,43.728 3.6,43.872 L8.544,47.52 C8.784,47.712 9.168,47.712 9.408,47.52 L13.92,44.208 L18.432,47.52 C18.672,47.712 19.056,47.712 19.296,47.52 L23.808,44.208 L28.32,47.52 C28.464,47.616 28.608,47.664 28.752,47.664 C28.896,47.664 29.04,47.616 29.184,47.52 L33.696,44.208 L38.208,47.52 C38.448,47.712 38.832,47.712 39.072,47.52 L44.016,43.872 C44.208,43.728 44.304,43.536 44.304,43.296 L44.304,1.68 L47.328,1.68 L47.328,0.24 L43.44,0.24 Z M42.72,42.96 L38.496,46.08 L33.984,42.768 C33.84,42.672 33.696,42.624 33.552,42.624 C33.408,42.624 33.264,42.672 33.12,42.768 L28.656,46.08 L24.144,42.768 C23.904,42.576 23.568,42.576 23.28,42.768 L18.768,46.08 L14.256,42.768 C14.016,42.576 13.632,42.576 13.392,42.768 L8.928,46.08 L4.704,42.96 L4.704,1.68 L42.72,1.68 L42.72,42.96 Z" id="Shape"></path>
                            <rect id="Rectangle-path" x="11.184" y="13.152" width="25.104" height="1.44"></rect>
                            <rect id="Rectangle-path" x="11.184" y="18.336" width="13.2" height="1.44"></rect>
                            <rect id="Rectangle-path" x="11.184" y="23.52" width="13.2" height="1.44"></rect>
                            <rect id="Rectangle-path" x="11.184" y="28.704" width="13.2" height="1.44"></rect>
                            <rect id="Rectangle-path" x="11.184" y="33.888" width="13.2" height="1.44"></rect>
                        </g>
                    </g>
                </g>
            </g>
        </g>
    </g>
</svg>