<svg width="178" height="23" xmlns="http://www.w3.org/2000/svg"><path d="M40.106 11.27c0-5.04 3.786-8.288 8.266-8.288 4.458 0 8.243 3.248 8.243 8.288 0 2.128-.672 3.92-1.792 5.287l1.949 2.128-2.33 1.971-1.948-2.15c-1.21.672-2.644 1.03-4.122 1.03-4.48 0-8.266-3.248-8.266-8.266zm3.674-.022c0 3.315 2.374 4.794 4.592 4.794.538 0 1.075-.09 1.613-.27l-2.33-2.553 2.352-1.971 2.33 2.554c.38-.695.605-1.524.605-2.554 0-3.315-2.375-4.816-4.57-4.816-2.218 0-4.592 1.5-4.592 4.816zM66 19.2h3.271c-.022-.18-.112-.986-.112-1.994V8.067h-3.405v6.34c0 1.12-.716 1.903-1.859 1.903-1.21 0-1.792-.85-1.792-1.926V8.067h-3.405v7.034c0 2.374 1.524 4.345 4.234 4.345 1.12 0 2.397-.403 2.98-1.366 0 .291.044.918.089 1.12zm11.246-2.8c1.299 0 2.508-.896 2.508-2.778 0-1.881-1.21-2.755-2.508-2.755-1.277 0-2.51.874-2.51 2.755 0 1.86 1.233 2.778 2.51 2.778zm0-8.669c3.337 0 5.913 2.442 5.913 5.891 0 3.45-2.576 5.914-5.913 5.914-3.316 0-5.914-2.464-5.914-5.914 0-3.45 2.598-5.89 5.914-5.89zM89.409 4.82h-3.047v1.434c0 1.03-.56 1.814-1.724 1.814h-.56v2.98h1.97v4.77c0 2.218 1.412 3.585 3.72 3.585 1.074 0 1.634-.247 1.769-.314v-2.822a4.2 4.2 0 0 1-.896.112c-.74 0-1.232-.247-1.232-1.165v-4.167h2.173v-2.98h-2.173V4.82zm7.631 7.48h4.457c-.044-.85-.627-1.88-2.24-1.88-1.433 0-2.15 1.052-2.217 1.88zm4.704 2.89l2.845.807c-.538 1.926-2.308 3.539-5.13 3.539-3.069 0-5.802-2.195-5.802-5.936 0-3.584 2.666-5.869 5.556-5.869 3.45 0 5.577 2.128 5.577 5.712 0 .47-.045.986-.067 1.053h-7.75c.067 1.254 1.21 2.15 2.53 2.15 1.233 0 1.927-.582 2.24-1.456zm12.831 4.01l-2.285-6.34h-2.419l-1.344 6.34h-2.688l3.36-15.882h5.354c2.867 0 4.48 1.748 4.48 4.055 0 2.688-1.725 4.57-4.122 5.197l2.531 6.63h-2.867zm-4.211-8.691h2.71c1.904 0 3.204-1.098 3.204-2.845 0-1.187-.74-1.994-2.263-1.994h-2.62l-1.031 4.839zm11.088-2.218l-1.366 6.384a5.88 5.88 0 0 0-.135 1.21c0 2.083 1.277 3.561 3.562 3.561 1.008 0 2.173-.47 2.8-1.433-.023.201-.023.38-.023.537 0 .292.023.516.045.65h2.509c-.022-.246-.022-.358-.022-.493 0-.694.112-1.321.246-1.993l1.747-8.423h-2.553l-1.344 6.362c-.292 1.366-1.143 2.553-2.532 2.553-1.276 0-1.792-.739-1.792-1.77 0-.268.045-.56.112-.873l1.344-6.272h-2.598zM141.388 19.2l1.434-6.63c.09-.381.134-.852.134-1.21 0-1.994-1.254-3.382-3.293-3.382-1.21 0-2.441.403-3.225 1.456.09-.426.112-1.008.112-1.143h-2.51c0 .09-.022.851-.246 1.882L131.89 19.2h2.576l1.367-6.34c.291-1.32 1.142-2.575 2.62-2.575 1.188 0 1.837.672 1.837 1.77 0 .201-.044.447-.09.694l-1.388 6.451h2.576zm12.746 0l1.433-6.63a5.7 5.7 0 0 0 .135-1.21c0-1.994-1.255-3.382-3.293-3.382-1.21 0-2.442.403-3.226 1.456.09-.426.112-1.008.112-1.143h-2.509c0 .09-.022.851-.246 1.882l-1.904 9.027h2.576l1.366-6.34c.292-1.32 1.143-2.575 2.621-2.575 1.187 0 1.837.672 1.837 1.77 0 .201-.045.447-.09.694l-1.388 6.451h2.576zm6.137-6.653h5.242c0-.045.022-.224.022-.336 0-.94-.56-2.083-2.217-2.083-1.636 0-2.666 1.142-3.047 2.42zm7.482 1.904h-7.773c-.022.112-.022.157-.022.247 0 1.545 1.075 2.62 2.576 2.62 1.433 0 2.352-.761 2.777-1.59l1.994 1.098c-.74 1.433-2.42 2.71-4.839 2.71-2.71 0-4.995-1.837-4.995-4.995 0-4.1 2.935-6.586 5.914-6.586 3.001 0 4.681 1.882 4.681 4.503 0 .739-.156 1.5-.313 1.993zm9.565-3.517l.56-2.688a4.092 4.092 0 0 0-.784-.067c-1.053 0-2.464.359-3.293 1.613.112-.426.157-1.187.157-1.5h-2.51c0 .089-.022.85-.246 1.88l-1.904 9.028h2.554l1.098-5.107c.537-2.464 1.926-3.27 3.45-3.27.29 0 .604.044.918.111zM17.745 6.907c-.364.066-.729.129-1.093.193-.72.128-.642.061-1.36.19-.149.026-.353.078-.5.105-.136.025-.297.041-.393-.012-.311-.173-.466-.544-.495-.917.02.026.042.052.061.079.054.072.212.166.297.202.127.053.232.021.347-.064.128-.095-.048-.162-.134-.277-.143-.19-.293-.435-.343-.675 0 0-.422-1.185.33-1.944.373-.505 1.282-.572 1.396-.586.407-.05.806-.156 1.21-.227.15-.026.28.08.309.237.028.155.053.31.08.465.113.655.225 1.309.34 1.963.058.338.12.564.18.902.033.195-.052.333-.232.366m11.7-1.714a.563.563 0 0 0-.022-.067c-.042.001-.081.013-.108.052a.066.066 0 0 1-.03.025.67.67 0 0 0-.06.169c-.016.084-.142.048-.126-.036a.828.828 0 0 1 .109-.26c.027-.1.07-.196.088-.298-.02-.1-.053-.211-.161-.207a.06.06 0 0 1-.044-.018 1.27 1.27 0 0 0-.097.466c.002.086-.13.086-.132 0-.008-.274.13-.513.198-.769a.294.294 0 0 0-.093-.185.072.072 0 0 1-.054-.014c-.08.22-.225.415-.266.652-.014.084-.14.048-.126-.035.052-.303.288-.538.314-.847a.07.07 0 0 1 .016-.039c-.014-.053-.03-.105-.04-.16-.01-.006-.017-.012-.027-.017-.056-.035-.147-.005-.16.066-.056.3-.18.564-.366.788l.007.186a.634.634 0 0 1-.003.279c-.04.221-.115.435-.18.65a.77.77 0 0 0-.01.128c.002.086-.13.085-.131 0-.003-.132.056-.318.1-.505 0-.098.005-.199.007-.3a.505.505 0 0 0-.027-.133c-.087-.23-.3-.167-.406-.017-.01.115-.001.245-.021.34a.069.069 0 0 1 .008.048c-.147.759-.584 1.327-1.292 1.625-.676.285-1.323.131-2.036.27-.193.104-.574.36-.755.505-.056.046-.038.07 0 0a1.59 1.59 0 0 1 .777-.68.93.93 0 0 1-.441-.735 1.38 1.38 0 0 0-.385-.88c-.185-.193-.4-.357-.607-.528-.01-.008-.014-.015-.022-.023-.484.313-.772.833-1.215 1.187a.818.818 0 0 1-.818.105c-.364-.148-.682-.584-.92-.882-.296-.372-.475-.79-.6-1.247-.042-.157-.042-.156 0 0 .186.677 1.048 1.843 1.853 1.939.335.04.829-.688 1.058-.893.188-.168.381-.345.6-.473.013-.02.025-.039.046-.059.548-.525.796-1.17.703-1.927-.107-.864-.576-1.48-1.363-1.812-.781-.329-1.527-.207-2.205.305-.33.249-.564.577-.712.966-.03.077-.063.085-.121.032l-.134-.118c-2.243-1.98-4.445-.483-4.87-.18-.627.448-1.143.995-1.468 1.707a.645.645 0 0 1-.016.032.929.929 0 0 1-.081.202l-.043.085-.002.008-.01.032a.258.258 0 0 1-.023.057c-.085.225-.904 1.936.163 3.858.167.223.369.411.619.477.168.015.825.136 1.409-.224-.315.395-.63.79-.948 1.183a.651.651 0 0 1-.185.141 4.36 4.36 0 0 0-.863.628c-.654.622-1.074 1.368-1.179 2.28a.963.963 0 0 1-.26.585c-.656.669-1.315 1.336-1.976 2.002a.054.054 0 0 1-.021.035 1.53 1.53 0 0 0-.094.082l-.037.037-.025.022c-.3.305-.484.7-.742 1.044-.046.062-.13.024-.12-.051.043-.316.203-.596.41-.847l-.049-.006a4.586 4.586 0 0 0-1.21-.043c-.818.066-1.594.294-2.355.597-.58.23-1.061.579-1.427 1.087-.193.269-.381.542-.568.815a2.091 2.091 0 0 0-.12.476c-.007.065-.085.092-.122.034a.775.775 0 0 0-.158-.177.516.516 0 0 1-.106-.019 2.385 2.385 0 0 1-.381-.15.625.625 0 0 0-.886.361 1.122 1.122 0 0 0-.043.56c.03.2.079.393.035.598-.069.325-.19.628-.346.915-.21.387-.286.798-.24 1.233.042.398.204.72.59.884a.524.524 0 0 0 .722-.347 7.17 7.17 0 0 0 .177-.763 1.61 1.61 0 0 1 .243-.648 4.59 4.59 0 0 1 .375-.494c.385-.435.835-.794 1.308-1.124.336-.234.675-.463 1.017-.688.4-.263.852-.395 1.31-.504.605-.144 1.22-.215 1.839-.263.245-.019.49-.037.735.021a1.8 1.8 0 0 0 .742.032c.59-.105 1.075-.368 1.344-.946.091-.197.26-.3.467-.34.061-.012.123-.019.184-.03.594-.11 1.12-.378 1.614-.716a8.428 8.428 0 0 0 1.57-1.416c-.712-.246-1.41-.532-2.177-.543-.047-.001-.066-.04-.062-.077-.004-.035.015-.075.062-.075.945-.006 1.838.27 2.733.545.624.155 1.257.255 1.897.314.337.032.674.068 1.015.013.35-.056.622.11.76.443.04.099.055.212.071.32.032.205.04.415.086.616.195.83.53 1.604.914 2.36.156.307.304.62.439.939.112.264.163.529.159.793a.512.512 0 0 0 .235.084c.05.005.096.073.047.113a3.601 3.601 0 0 1-.219.165c-.079.14-.16.277-.234.418l-.017.04a1.41 1.41 0 0 0-.105.648.5.5 0 0 0 .294.44c.156.076.32.073.486.048.3-.046.569-.178.836-.316a.887.887 0 0 1 .243-.089c.356-.064.714-.029 1.072-.008.276.015.55.07.829.028.49-.072.866-.4.99-.882.048-.185-.031-.36-.205-.41-.32-.09-.64-.192-.968-.24-.44-.064-.8-.254-1.082-.592a4.36 4.36 0 0 1-.842-1.62c-.178-.625-.251-1.272-.318-1.918-.096-.922-.183-1.845-.19-2.774a1.3 1.3 0 0 0-.217-.703 1.784 1.784 0 0 0-.547-.536 4.007 4.007 0 0 0-1.715-.597c-.518-.062-1.019-.203-1.517-.352-.032-.01-.078-.033-.083-.057-.005-.026.024-.067.05-.09.226-.203.486-.353.77-.455.339-.122.686-.222 1.027-.34.987-.342 1.808-.95 2.565-1.657.076-.071.144-.077.225-.036.042.02.081.048.116.078a8.4 8.4 0 0 0 1.177.835c.273.166.737.21 1.055.17.308-.037.686-.046.99-.11.834-.178 1.503-.536 2.16-1.101.077-.066.876-.796 1.017-.925.223-.204.406-.521.545-.836.078-.265.234-.546.166-.824" fill="#065466"/></svg>