<svg id="logo" width="178px" height="23px" viewBox="0 0 178 23" version="1.1" xmlns="http://www.w3.org/2000/svg" xmlns:xlink="http://www.w3.org/1999/xlink">
  <g transform="translate(-3.1,-4)" fill="#065466">
    <g transform="translate(43.200000,6.400000)">
        <path d="M0.0064,8.8704 C0.0064,3.8304 3.792,0.5824 8.272,0.5824 C12.7296,0.5824 16.5152,3.8304 16.5152,8.8704 C16.5152,10.9984 15.8432,12.7904 14.7232,14.1568 L16.672,16.2848 L14.3424,18.256 L12.3936,16.1056 C11.184,16.7776 9.7504,17.136 8.272,17.136 C3.792,17.136 0.0064,13.888 0.0064,8.8704 Z M3.68,8.848 C3.68,12.1632 6.0544,13.6416 8.272,13.6416 C8.8096,13.6416 9.3472,13.552 9.8848,13.3728 L7.5552,10.8192 L9.9072,8.848 L12.2368,11.4016 C12.6176,10.7072 12.8416,9.8784 12.8416,8.848 C12.8416,5.5328 10.4672,4.032 8.272,4.032 C6.0544,4.032 3.68,5.5328 3.68,8.848 Z M25.9008,16.8 L29.1712,16.8 C29.1488,16.6208 29.0592,15.8144 29.0592,14.8064 L29.0592,5.6672 L25.6544,5.6672 L25.6544,12.0064 C25.6544,13.1264 24.9376,13.9104 23.7952,13.9104 C22.5856,13.9104 22.0032,13.0592 22.0032,11.984 L22.0032,5.6672 L18.5984,5.6672 L18.5984,12.7008 C18.5984,15.0752 20.1216,17.0464 22.832,17.0464 C23.952,17.0464 25.2288,16.6432 25.8112,15.68 C25.8112,15.9712 25.856,16.5984 25.9008,16.8 Z M37.1456,14 C38.4448,14 39.6544,13.104 39.6544,11.2224 C39.6544,9.3408 38.4448,8.4672 37.1456,8.4672 C35.8688,8.4672 34.6368,9.3408 34.6368,11.2224 C34.6368,13.0816 35.8688,14 37.1456,14 Z M37.1456,5.3312 C40.4832,5.3312 43.0592,7.7728 43.0592,11.2224 C43.0592,14.672 40.4832,17.136 37.1456,17.136 C33.8304,17.136 31.232,14.672 31.232,11.2224 C31.232,7.7728 33.8304,5.3312 37.1456,5.3312 Z M49.3088,2.4192 L46.2624,2.4192 L46.2624,3.8528 C46.2624,4.8832 45.7024,5.6672 44.5376,5.6672 L43.9776,5.6672 L43.9776,8.6464 L45.9488,8.6464 L45.9488,13.4176 C45.9488,15.6352 47.36,17.0016 49.6672,17.0016 C50.7424,17.0016 51.3024,16.7552 51.4368,16.688 L51.4368,13.8656 C51.2352,13.9104 50.8992,13.9776 50.5408,13.9776 C49.8016,13.9776 49.3088,13.7312 49.3088,12.8128 L49.3088,8.6464 L51.4816,8.6464 L51.4816,5.6672 L49.3088,5.6672 L49.3088,2.4192 Z"></path>
        <path d="M56.9397336,9.9008 L61.3973336,9.9008 C61.3525336,9.0496 60.7701336,8.0192 59.1573336,8.0192 C57.7237336,8.0192 57.0069336,9.072 56.9397336,9.9008 Z M61.6437336,12.7904 L64.4885336,13.5968 C63.9509336,15.5232 62.1813336,17.136 59.3589336,17.136 C56.2901336,17.136 53.5573336,14.9408 53.5573336,11.2 C53.5573336,7.616 56.2229336,5.3312 59.1125336,5.3312 C62.5621336,5.3312 64.6901336,7.4592 64.6901336,11.0432 C64.6901336,11.5136 64.6453336,12.0288 64.6229336,12.096 L56.8725336,12.096 C56.9397336,13.3504 58.0821336,14.2464 59.4037336,14.2464 C60.6357336,14.2464 61.3301336,13.664 61.6437336,12.7904 Z"></path>
        <path d="M74.4752,16.8 L72.1904,10.4608 L69.7712,10.4608 L68.4272,16.8 L65.7392,16.8 L69.0992,0.9184 L74.4528,0.9184 C77.32,0.9184 78.9328,2.6656 78.9328,4.9728 C78.9328,7.6608 77.208,9.5424 74.8112,10.1696 L77.3424,16.8 L74.4752,16.8 Z M70.264,8.1088 L72.9744,8.1088 C74.8784,8.1088 76.1776,7.0112 76.1776,5.264 C76.1776,4.0768 75.4384,3.2704 73.9152,3.2704 L71.2944,3.2704 L70.264,8.1088 Z M81.352,5.8912 L79.9856,12.2752 C79.896,12.7008 79.8512,13.104 79.8512,13.4848 C79.8512,15.568 81.128,17.0464 83.4128,17.0464 C84.4208,17.0464 85.5856,16.576 86.2128,15.6128 C86.1904,15.8144 86.1904,15.9936 86.1904,16.1504 C86.1904,16.4416 86.2128,16.6656 86.2352,16.8 L88.744,16.8 C88.7216,16.5536 88.7216,16.4416 88.7216,16.3072 C88.7216,15.6128 88.8336,14.9856 88.968,14.3136 L90.7152,5.8912 L88.1616,5.8912 L86.8176,12.2528 C86.5264,13.6192 85.6752,14.8064 84.2864,14.8064 C83.0096,14.8064 82.4944,14.0672 82.4944,13.0368 C82.4944,12.768 82.5392,12.4768 82.6064,12.1632 L83.9504,5.8912 L81.352,5.8912 Z M101.288,16.8 L102.7216,10.1696 C102.8112,9.7888 102.856,9.3184 102.856,8.96 C102.856,6.9664 101.6016,5.5776 99.5632,5.5776 C98.3536,5.5776 97.1216,5.9808 96.3376,7.0336 C96.4272,6.608 96.4496,6.0256 96.4496,5.8912 L93.9408,5.8912 C93.9408,5.9808 93.9184,6.7424 93.6944,7.7728 L91.7904,16.8 L94.3664,16.8 L95.7328,10.4608 C96.024,9.1392 96.8752,7.8848 98.3536,7.8848 C99.5408,7.8848 100.1904,8.5568 100.1904,9.6544 C100.1904,9.856 100.1456,10.1024 100.1008,10.3488 L98.712,16.8 L101.288,16.8 Z M114.0336,16.8 L115.4672,10.1696 C115.5568,9.7888 115.6016,9.3184 115.6016,8.96 C115.6016,6.9664 114.3472,5.5776 112.3088,5.5776 C111.0992,5.5776 109.8672,5.9808 109.0832,7.0336 C109.1728,6.608 109.1952,6.0256 109.1952,5.8912 L106.6864,5.8912 C106.6864,5.9808 106.664,6.7424 106.44,7.7728 L104.536,16.8 L107.112,16.8 L108.4784,10.4608 C108.7696,9.1392 109.6208,7.8848 111.0992,7.8848 C112.2864,7.8848 112.936,8.5568 112.936,9.6544 C112.936,9.856 112.8912,10.1024 112.8464,10.3488 L111.4576,16.8 L114.0336,16.8 Z M120.1712,10.1472 L125.4128,10.1472 C125.4128,10.1024 125.4352,9.9232 125.4352,9.8112 C125.4352,8.8704 124.8752,7.728 123.2176,7.728 C121.5824,7.728 120.552,8.8704 120.1712,10.1472 Z M127.6528,12.0512 L119.88,12.0512 C119.8576,12.1632 119.8576,12.208 119.8576,12.2976 C119.8576,13.8432 120.9328,14.9184 122.4336,14.9184 C123.8672,14.9184 124.7856,14.1568 125.2112,13.328 L127.2048,14.4256 C126.4656,15.8592 124.7856,17.136 122.3664,17.136 C119.656,17.136 117.3712,15.2992 117.3712,12.1408 C117.3712,8.0416 120.3056,5.5552 123.2848,5.5552 C126.2864,5.5552 127.9664,7.4368 127.9664,10.0576 C127.9664,10.7968 127.8096,11.5584 127.6528,12.0512 Z M137.2176,8.5344 L137.7776,5.8464 C137.5536,5.8016 137.2848,5.7792 136.9936,5.7792 C135.9408,5.7792 134.5296,6.1376 133.7008,7.392 C133.8128,6.9664 133.8576,6.2048 133.8576,5.8912 L131.3488,5.8912 C131.3488,5.9808 131.3264,6.7424 131.1024,7.7728 L129.1984,16.8 L131.752,16.8 L132.8496,11.6928 C133.3872,9.2288 134.776,8.4224 136.2992,8.4224 C136.5904,8.4224 136.904,8.4672 137.2176,8.5344 Z"></path>
    </g>
    <path d="M20.8450123,10.9066217 C20.4807315,10.9725582 20.1162012,11.0357158 19.7516708,11.1003892 C19.0320914,11.2282202 19.1104368,11.1610205 18.3911069,11.2896094 C18.2433985,11.3158829 18.0390519,11.36843 17.8913435,11.3947036 C17.7561105,11.4202193 17.5949287,11.4363876 17.4993674,11.3830826 C17.1877326,11.2095255 17.0327885,10.8389168 17.0035962,10.4660343 C17.0243053,10.4923079 17.0455134,10.5178236 17.065474,10.5446024 C17.1193676,10.6168546 17.2765573,10.7113384 17.3616393,10.7469593 C17.4888881,10.8002643 17.5941802,10.7684329 17.7089536,10.6827912 C17.8367014,10.5878022 17.6607986,10.5206025 17.5749681,10.4056557 C17.4324994,10.2151724 17.2820464,9.97062616 17.2318954,9.73062736 C17.2318954,9.73062736 16.8099784,8.54553824 17.5624927,7.78663665 C17.9345083,7.28188117 18.8442123,7.2146815 18.9582372,7.20078682 C19.3646848,7.15127127 19.7636472,7.04491389 20.1678492,6.97392475 C20.3170546,6.94790382 20.4477965,7.05325069 20.4767394,7.21114466 C20.5051832,7.36575446 20.529635,7.52137476 20.5565818,7.67623718 C20.6696086,8.33054984 20.782386,8.98486248 20.8964109,9.63917512 C20.9552946,9.97694192 21.0166734,10.2030462 21.0760562,10.540813 C21.1102387,10.7363488 21.0246577,10.8740324 20.8450123,10.9066217 M32.5451636,9.19328256 C32.539425,9.17004056 32.5316902,9.14755648 32.523207,9.1255776 C32.4810402,9.12709336 32.4416181,9.13921968 32.4149207,9.17837736 C32.406687,9.19075624 32.3962077,9.19808248 32.3852294,9.20288248 C32.3587816,9.2566928 32.3365754,9.3120188 32.3250981,9.3716396 C32.3091296,9.45551288 32.1828789,9.419892 32.1985978,9.33627136 C32.2168118,9.24077704 32.2599766,9.1571564 32.3076326,9.07530416 C32.3350784,8.97576776 32.3787422,8.87976824 32.3957087,8.77821088 C32.3754986,8.6781692 32.3433122,8.56701184 32.2345269,8.57054872 C32.2173109,8.57105392 32.2023404,8.56423296 32.1908631,8.5531172 C32.1369695,8.70368488 32.0888146,8.85551576 32.0935552,9.01947288 C32.0960502,9.1053672 31.9648094,9.10486192 31.9623143,9.01947288 C31.9543301,8.74461104 32.0923077,8.50612792 32.1599242,8.250466 C32.1491954,8.18048736 32.1242446,8.11606664 32.0668579,8.06528792 C32.0478954,8.06781424 32.0279347,8.06301424 32.0129643,8.05114064 C31.9323734,8.27118168 31.7884076,8.46595968 31.7472389,8.70292696 C31.7327674,8.78705288 31.6062672,8.75117936 31.6207386,8.66755872 C31.6731352,8.3649076 31.9091692,8.13021392 31.9348685,7.82149964 C31.9363655,7.8053313 31.9423537,7.79219451 31.950837,7.7820893 C31.936615,7.72928955 31.9213951,7.67674244 31.9109158,7.62192165 C31.9019335,7.61636378 31.8939493,7.61030065 31.884468,7.60474278 C31.8280793,7.57013242 31.7372586,7.60019543 31.7240347,7.67067931 C31.6683946,7.97156208 31.5443894,8.23480296 31.3582569,8.45939128 C31.3605024,8.52128576 31.3629975,8.58318024 31.365243,8.64507464 C31.3884473,8.73197952 31.380463,8.82621064 31.362249,8.92372592 C31.3213298,9.14503016 31.246727,9.35926072 31.1811066,9.5747544 C31.1746194,9.61972264 31.1708768,9.66266976 31.1718748,9.70208008 C31.1738709,9.7879744 31.04263,9.7874692 31.0406339,9.70208008 C31.0376398,9.57020704 31.0965236,9.3835132 31.1414349,9.19656672 C31.1401874,9.09930408 31.146425,8.99799928 31.1479221,8.89694712 C31.14393,8.85071576 31.1361953,8.80549496 31.1207258,8.76406352 C31.0341467,8.53366464 30.8213169,8.59682224 30.7150267,8.74663208 C30.705795,8.86233672 30.7137792,8.99168352 30.6935691,9.08667256 C30.7015534,9.09980928 30.7052959,9.11597768 30.7018028,9.13467232 C30.554843,9.89382656 30.117706,10.4617396 29.4098534,10.7598434 C28.7339378,11.0448105 28.0872146,10.8909586 27.3743719,11.0294001 C27.1812532,11.133989 26.7997563,11.3901562 26.6193625,11.5354187 C26.5632233,11.5806395 26.5814374,11.6051446 26.6193625,11.5354187 C26.7837878,11.2325149 27.0707214,10.994537 27.3955801,10.855843 C27.1473202,10.7035069 26.9779046,10.4402661 26.9547005,10.1201834 C26.9297497,9.77584816 26.8010038,9.48052328 26.570459,9.24001912 C26.3853245,9.04700952 26.1697501,8.88305248 25.9629085,8.71227432 C25.9534272,8.7044428 25.949435,8.6966112 25.9412013,8.68877968 C25.4566579,9.00178872 25.1687263,9.52220728 24.7261002,9.87588976 C24.4965534,10.0592994 24.181176,10.0921414 23.9077158,9.980984 C23.5436846,9.83344792 23.2263111,9.39740784 22.9880315,9.0987988 C22.6916167,8.72743216 22.5134684,8.30932888 22.3887147,7.85232054 C22.3455499,7.69518446 22.3457994,7.69594234 22.3887147,7.85232054 C22.5735997,8.52936992 23.4356478,9.69525912 24.2410578,9.791006 C24.5758967,9.8309216 25.0696719,9.10334616 25.2987197,8.89821024 C25.4870978,8.72970584 25.679967,8.5531172 25.898785,8.42528624 C25.9122585,8.40583368 25.9239853,8.38638112 25.9449439,8.36617072 C26.4931118,7.84120481 26.7411221,7.19623947 26.6475568,6.438601 C26.5407676,5.5751104 26.0724422,4.95818704 25.2847473,4.62673599 C24.5037891,4.29806389 23.7575124,4.42033698 23.0796007,4.93191348 C22.7495024,5.18100702 22.515714,5.50892124 22.3680056,5.89771938 C22.3385638,5.97477164 22.3048802,5.98285582 22.2469945,5.92980344 C22.2033307,5.88938258 22.1571718,5.85174066 22.1127595,5.81233031 C19.8704363,3.83271874 17.6677849,5.32879579 17.2431233,5.6324575 C16.6163606,6.0801185 16.1001298,6.62731589 15.7750216,7.33897563 C15.7697819,7.350344 15.7642928,7.36095448 15.7588036,7.37131232 C15.7420866,7.44179619 15.7103992,7.50899587 15.6777138,7.57341662 C15.6634918,7.60145858 15.6490204,7.62950056 15.6350479,7.65779516 C15.634549,7.66107935 15.6335509,7.66385829 15.6328024,7.66638459 C15.6298083,7.67699506 15.6260657,7.68760554 15.6233211,7.69821602 C15.6178319,7.71867908 15.6098477,7.73737373 15.6003664,7.75480522 C15.5147854,7.97989888 14.695902,9.6909644 15.7632948,11.6127236 C15.9297162,11.8363014 16.1315677,12.0240058 16.3818237,12.0899423 C16.5497422,12.1048475 17.2066952,12.2258575 17.7910415,11.8663645 C17.4759137,12.2612258 17.1615343,12.6565922 16.8426638,13.0486746 C16.7947584,13.1075374 16.7246469,13.1520004 16.6577789,13.1901476 C16.3468926,13.3674942 16.054969,13.5708616 15.7947327,13.8181867 C15.1407738,14.43991 14.7213518,15.1864328 14.6163092,16.098681 C14.5906099,16.3220063 14.5132626,16.5231001 14.3565719,16.6827625 C13.6998684,17.3519803 13.0409194,18.0189245 12.3804732,18.6846055 C12.3787266,18.697237 12.372489,18.7096159 12.3587661,18.720479 C12.3260806,18.7462473 12.2951417,18.7735314 12.2649513,18.8015734 C12.2524759,18.8139522 12.24025,18.8263311 12.2277746,18.8389626 C12.2197904,18.8467942 12.2113072,18.8536152 12.2030734,18.8609415 C11.9031655,19.1656137 11.71853,19.5617382 11.4610384,19.9050628 C11.41463,19.9669573 11.3307955,19.9293154 11.3410253,19.8537789 C11.3841901,19.5382435 11.5443738,19.2580764 11.7517145,19.0074671 C11.7354966,19.0056987 11.719029,19.0041829 11.7023121,19.0011514 C11.3001061,18.9263727 10.8959041,18.9261202 10.4917021,18.9584568 C9.67431576,19.0236354 8.8975992,19.2517606 8.13660152,19.5549171 C7.55724533,19.7855686 7.07594552,20.1339459 6.71016765,20.6419856 C6.5167994,20.9107843 6.32892032,21.1838778 6.14228877,21.4574764 C6.08689812,21.610823 6.03974122,21.7707381 6.02177669,21.9331794 C6.01454097,21.9976002 5.93719367,22.0248842 5.89951805,21.9667793 C5.8541077,21.896548 5.80121213,21.8402114 5.74157986,21.7904433 C5.7096429,21.7881696 5.67521089,21.7826117 5.63603822,21.771496 C5.50529634,21.7348646 5.37804755,21.6792859 5.25504039,21.620423 C4.89450218,21.4483818 4.50751618,21.604002 4.36928906,21.9824423 C4.30242108,22.1648414 4.29817945,22.3543142 4.32637379,22.5422712 C4.35606517,22.7413439 4.40471912,22.9348588 4.36105532,23.1404999 C4.29244078,23.4646247 4.1719287,23.7675285 4.01523804,24.0552745 C3.80465378,24.441799 3.72905303,24.8530812 3.77471289,25.2878581 C3.81663014,25.6860035 3.97905946,26.0083599 4.36529694,26.1715591 C4.66844846,26.2996427 4.99829726,26.1447803 5.08737141,25.8252029 C5.15723349,25.5738357 5.22210542,25.3194369 5.26402266,25.0622591 C5.3024468,24.826555 5.37680002,24.6090402 5.50704289,24.4142622 C5.62206581,24.2424736 5.74532247,24.0742218 5.88205254,23.9201173 C6.26704248,23.4853404 6.71715386,23.1258474 7.19046942,22.7964174 C7.52630641,22.5624817 7.86538699,22.3333459 8.20671312,22.1082522 C8.60692304,21.8445062 9.05853144,21.7128858 9.5173756,21.6037494 C10.1221816,21.4600027 10.7377164,21.3892662 11.3557462,21.3412665 C11.601012,21.3223192 11.8467769,21.3038771 12.0907951,21.3624874 C12.3358114,21.4213503 12.5845702,21.4387818 12.8330797,21.3943188 C13.4239132,21.2892246 13.9079576,21.026489 14.1766771,20.4477128 C14.2682463,20.2506611 14.4364143,20.1478406 14.6440045,20.107925 C14.7051338,20.0960514 14.7672611,20.089483 14.8283905,20.0781146 C15.4217191,19.9674625 15.9476807,19.7001796 16.4422045,19.3621602 C17.0287964,18.9612358 17.5437797,18.4794696 18.0123546,17.9459143 C17.2995119,17.700105 16.6011406,17.41438 15.8346539,17.4025064 C15.788495,17.4017485 15.7685344,17.3623382 15.7725266,17.3264646 C15.7685344,17.2908438 15.788495,17.2514334 15.8346539,17.2511808 C16.7800375,17.2451177 17.6732741,17.5214953 18.5680076,17.7958518 C19.1915266,17.9512195 19.8252755,18.0507559 20.465262,18.1103766 C20.8023466,18.1417028 21.1389321,18.1775763 21.4802582,18.1230082 C21.8300676,18.0671769 22.1017812,18.233155 22.2397588,18.5656166 C22.2809275,18.6649003 22.2946504,18.7775734 22.3111179,18.8854466 C22.3425558,19.0908351 22.3502906,19.3012762 22.3974474,19.50237 C22.5918138,20.3315029 22.9266527,21.1063202 23.3108942,21.861685 C23.4673353,22.1693888 23.6145446,22.4829031 23.7497777,22.8007121 C23.8623055,23.0654687 23.913205,23.3297201 23.9087139,23.5937188 C23.9773284,23.6374238 24.0456934,23.6669816 24.1444984,23.6775921 C24.1941504,23.68315 24.2403093,23.7508549 24.1909068,23.7910231 C24.1197972,23.8491282 24.046941,23.9039489 23.9723383,23.9559908 C23.8932444,24.095948 23.8126535,24.2333789 23.7378013,24.3738414 C23.7320626,24.3874834 23.726823,24.4011255 23.7210843,24.4147675 C23.6317606,24.6199034 23.6035663,24.8396918 23.6162912,25.0622591 C23.627519,25.2643634 23.729817,25.4124049 23.9104605,25.5013307 C24.0659036,25.5776251 24.2305785,25.5753514 24.3957524,25.5500884 C24.6959098,25.5041097 24.9646293,25.3722366 25.2316022,25.2337952 C25.3079515,25.1943848 25.391287,25.1605324 25.4751214,25.1453746 C25.8314181,25.081459 26.1894612,25.1163221 26.5470054,25.1365325 C26.8229606,25.1521956 27.0961711,25.2070163 27.3756194,25.1653323 C27.866151,25.0925748 28.2419092,24.7641554 28.3659144,24.2826418 C28.4135703,24.0984743 28.334726,23.9221383 28.1605698,23.873128 C27.8407013,23.782939 27.5203338,23.6808763 27.193479,23.6331291 C26.7530985,23.5687084 26.3930593,23.3794882 26.1106169,23.0414688 C25.7126526,22.5657658 25.4389429,22.0173054 25.2690283,21.4218555 C25.0906306,20.7963427 25.0175249,20.1485985 24.9506569,19.5031279 C24.8550955,18.581027 24.7680174,17.657663 24.7617798,16.7289938 C24.7600332,16.4730793 24.6814384,16.2393962 24.5442093,16.0256709 C24.4022396,15.8048719 24.215109,15.629799 23.997289,15.4898418 C23.4730739,15.1530856 22.8969614,14.9674022 22.2824246,14.8933815 C21.7644471,14.8312345 21.2634362,14.6900141 20.764671,14.5414674 C20.732734,14.5318675 20.6865751,14.5083729 20.6818345,14.484373 C20.6765948,14.4583521 20.7062862,14.4169206 20.7314865,14.3944366 C20.9580392,14.1910691 21.2182754,14.0407541 21.5014663,13.938944 C21.8410459,13.8166709 22.1883602,13.7166293 22.5291874,13.5983983 C23.5157397,13.2565894 24.3366191,12.6482554 25.0938742,11.9421536 C25.1704729,11.8709118 25.2375904,11.8648487 25.3191794,11.9057748 C25.3605975,11.9264905 25.4002692,11.9535219 25.4354498,11.9840902 C25.8007286,12.3011414 26.199192,12.5699401 26.6116278,12.8190336 C26.8850878,12.9845065 27.3491717,13.0289694 27.6667946,12.9898118 C27.9754353,12.9516646 28.353439,12.9430751 28.657339,12.8784018 C29.4911929,12.7005499 30.1601222,12.3425727 30.8173248,11.7779438 C30.894173,11.7117547 31.6933453,10.9821582 31.8340675,10.8533167 C32.0571271,10.6486861 32.2397666,10.3318876 32.3794907,10.0166049 C32.4565885,9.75210088 32.6132791,9.47067072 32.5451636,9.19328256">
    </path>
  </g>
</svg>
