<?xml version="1.0" encoding="UTF-8" standalone="no"?>
<svg width="22px" height="22px" viewBox="0 0 22 22" version="1.1" xmlns="http://www.w3.org/2000/svg" xmlns:xlink="http://www.w3.org/1999/xlink">
    <!-- Generator: Sketch 47.1 (45422) - http://www.bohemiancoding.com/sketch -->
    <title>checkmark</title>
    <desc>Created with Sketch.</desc>
    <defs></defs>
    <g id="QR-Painters" stroke="none" stroke-width="1" fill="none" fill-rule="evenodd">
        <g id="zip_success" transform="translate(-738.000000, -319.000000)">
            <g id="CTA" transform="translate(360.000000, 200.000000)">
                <g id="Group-4" transform="translate(100.000000, 91.000000)">
                    <g id="form">
                        <g id="Group-6">
                            <g id="Group-2-Copy">
                                <g id="checkmark" transform="translate(278.000000, 28.000000)">
                                    <circle id="Oval-2" fill="#45D1A6" cx="11" cy="11" r="11"></circle>
                                    <path d="M16.5531401,4.88888889 L17.7222222,6.42521911 C14.707221,8.80746395 11.815281,13.7025728 10.0308924,17.1111111 C7.90193237,14.1255301 6.25906433,12.0294034 4.27777778,10.5801527 L5.46531909,9.48543964 C6.88667684,10.3500141 7.93885075,11.1150693 9.63709636,12.726039 C10.8677091,10.5801527 13.6304348,7.1964942 16.5531401,4.88888889 Z" id="Shape" fill="#FFFFFF" fill-rule="nonzero"></path>
                                    <path d="M17.3463119,5.97530864 C14.3328665,8.34871562 11.4365079,13.2132704 9.65555556,16.6029665 C9.77264239,16.7702824 9.89589169,16.9375983 10.019141,17.1111111 C11.8062558,13.721415 14.7026144,8.84446643 17.7222222,6.46486256 L17.3463119,5.97530864 Z" id="Shape" fill="#DBDBDB" fill-rule="nonzero"></path>
                                </g>
                            </g>
                        </g>
                    </g>
                </g>
            </g>
        </g>
    </g>
</svg>