<?xml version="1.0" encoding="UTF-8" standalone="no"?>
<svg width="8px" height="12px" viewBox="0 0 8 12" version="1.1" xmlns="http://www.w3.org/2000/svg" xmlns:xlink="http://www.w3.org/1999/xlink">
    <!-- Generator: Sketch 48 (47235) - http://www.bohemiancoding.com/sketch -->
    <title>zip-help-icon</title>
    <desc>Created with Sketch.</desc>
    <defs></defs>
    <g id="zip" stroke="none" stroke-width="1" fill="none" fill-rule="evenodd" transform="translate(-29.000000, -350.000000)">
        <g id="ZIP-help" transform="translate(28.000000, 345.000000)" fill="#073649">
            <g id="map-pin" transform="translate(0.000000, 4.000000)">
                <g id="Layer_1">
                    <path d="M7.00000715,4.99999166 C7.00000715,3.89842784 6.10156858,2.99998927 5.00000477,2.99998927 C3.89844096,2.99998927 3.00000238,3.89842784 3.00000238,4.99999166 C3.00000238,6.10155547 3.89844096,6.99999404 5.00000477,6.99999404 C6.10156858,6.99999404 7.00000715,6.10155547 7.00000715,4.99999166 Z M9.00000954,4.99999166 C9.00000954,5.47655472 8.94532197,5.96874281 8.74219673,6.39843082 L5.89844334,12.445313 C5.73438064,12.7890634 5.37500522,13.0000012 5.00000477,13.0000012 C4.62500432,13.0000012 4.26562889,12.7890634 4.10937871,12.445313 L1.25781281,6.39843082 C1.05468757,5.96874281 1,5.47655472 1,4.99999166 C1,2.78905152 2.78906463,0.999986887 5.00000477,0.999986887 C7.2109449,0.999986887 9.00000954,2.78905152 9.00000954,4.99999166 Z" id="zip-help-icon"></path>
                </g>
            </g>
        </g>
    </g>
</svg>