<?xml version="1.0" encoding="UTF-8" standalone="no"?>
<svg width="18px" height="18px" viewBox="0 0 18 18" version="1.1" xmlns="http://www.w3.org/2000/svg" xmlns:xlink="http://www.w3.org/1999/xlink">
    <!-- Generator: Sketch 48 (47235) - http://www.bohemiancoding.com/sketch -->
    <title>checkmark-active</title>
    <desc>Created with Sketch.</desc>
    <defs></defs>
    <g id="email_success" stroke="none" stroke-width="1" fill="none" fill-rule="evenodd" transform="translate(-273.000000, -296.000000)">
        <g id="Group-2-Copy" transform="translate(10.000000, 221.000000)">
            <g id="checkmark-active" transform="translate(263.000000, 75.000000)">
                <circle id="Oval-2" fill="#46D0A6" cx="9" cy="9" r="9"></circle>
                <path d="M13.5434783,4 L14.5,5.25699746 C12.0331808,7.20610687 9.66704805,11.2111959 8.20709382,14 C6.46521739,11.5572519 5.12105263,9.84223919 3.5,8.65648855 L4.47162471,7.76081425 C5.63455378,8.46819338 6.49542334,9.09414758 7.88489703,10.4122137 C8.89176201,8.65648855 11.1521739,5.88804071 13.5434783,4 Z" id="Shape" fill="#FFFFFF" fill-rule="nonzero"></path>
                <path d="M14.192437,4.88888889 C11.7268908,6.83076733 9.35714286,10.8108576 7.9,13.5842453 C7.99579832,13.7211402 8.09663866,13.858035 8.19747899,14 C9.65966387,11.2266123 12.0294118,7.23638162 14.5,5.28943301 L14.192437,4.88888889 Z" id="Shape" fill="#DBDBDB" fill-rule="nonzero"></path>
            </g>
        </g>
    </g>
</svg>