<svg width="87" height="87" xmlns="http://www.w3.org/2000/svg"><g fill="none" fill-rule="evenodd"><circle fill="#0FBBEF" cx="43.5" cy="43.5" r="43.5"/><g fill="#FFF" fill-rule="nonzero"><path d="M32.864 32.816h21.792v1.344H32.864zm0 4.656h21.792v1.344H32.864zm0 4.656h15.408v1.344H32.864zm0-15.408h6.96v1.344h-6.96z"/><path d="M67.184 38.672a.77.77 0 0 0-.24-.528l-5.616-4.656v-5.712a.616.616 0 0 0-.192-.48l-6.768-6.816a.616.616 0 0 0-.48-.192H26.816a.656.656 0 0 0-.672.672v12.624l-5.472 4.56a.77.77 0 0 0-.24.528V67.28s0 .048.048.048c0 .048.048.096.048.096l.048.048c.048.048.096.048.144.096l.048.048.048.048h.096c.048 0 .096.048.192.048H66.56c.048 0 .144 0 .192-.048h.096s.048 0 .048-.048c.048 0 .048-.048.096-.048s.048-.048.096-.096l.048-.048c0-.048.048-.048.048-.096 0 0 0-.048.048-.048V38.72l-.048-.048zm-5.808-3.456l4.128 3.456-4.128 3.408v-6.864zM54.56 22.544l4.56 4.56h-4.56v-4.56zm-27.072-.96h25.728v6.144c0 .384.288.672.672.672h6.144v14.784l-10.368 8.64-.624.48-5.232 4.368-16.32-13.632V21.584zm-1.296 13.728v6.72l-4.032-3.36 4.032-3.36zm-4.416 4.8l15.312 12.72L21.776 65.6V40.112zm1.2 26.256l15.216-12.624 5.232 4.368a.774.774 0 0 0 .432.144.774.774 0 0 0 .432-.144l5.232-4.368 15.216 12.624h-41.76zm42.912-.768L54.56 56.192l-4.032-3.36 15.312-12.72V65.6h.048z"/></g></g></svg>