<?xml version="1.0" encoding="UTF-8" standalone="no"?>
<svg width="87px" height="87px" viewBox="0 0 87 87" version="1.1" xmlns="http://www.w3.org/2000/svg" xmlns:xlink="http://www.w3.org/1999/xlink">
    <!-- Generator: Sketch 48.1 (47250) - http://www.bohemiancoding.com/sketch -->
    <title>email</title>
    <desc>Created with Sketch.</desc>
    <defs></defs>
    <g id="information_how-it-works" stroke="none" stroke-width="1" fill="none" fill-rule="evenodd" transform="translate(-677.000000, -472.000000)">
        <g id="Learn-More---How-It-Works" transform="translate(526.000000, 147.000000)">
            <g id="Group-12" transform="translate(44.000000, 6.000000)">
                <g id="Group-11" transform="translate(0.000000, 319.000000)">
                    <g id="email" transform="translate(107.000000, 0.000000)">
                        <circle id="Oval-Copy" fill="#0FBBEF" cx="43.5" cy="43.5" r="43.5"></circle>
                        <g transform="translate(20.000000, 20.000000)" fill="#FFFFFF" fill-rule="nonzero">
                            <rect id="Rectangle-path" x="12.864" y="12.816" width="21.792" height="1.344"></rect>
                            <rect id="Rectangle-path" x="12.864" y="17.472" width="21.792" height="1.344"></rect>
                            <rect id="Rectangle-path" x="12.864" y="22.128" width="15.408" height="1.344"></rect>
                            <rect id="Rectangle-path" x="12.864" y="6.72" width="6.96" height="1.344"></rect>
                            <path d="M47.184,18.672 C47.184,18.48 47.088,18.288 46.944,18.144 L41.328,13.488 L41.328,7.776 C41.328,7.584 41.28,7.44 41.136,7.296 L34.368,0.48 C34.224,0.336 34.08,0.288 33.888,0.288 L6.816,0.288 C6.432,0.288 6.144,0.576 6.144,0.96 L6.144,13.584 L0.672,18.144 C0.528,18.288 0.432,18.48 0.432,18.672 C0.432,18.672 0.432,18.672 0.432,18.72 C0.432,18.72 0.432,18.72 0.432,18.72 L0.432,47.04 C0.432,47.04 0.432,47.04 0.432,47.04 C0.432,47.088 0.432,47.088 0.432,47.136 C0.432,47.184 0.432,47.232 0.432,47.28 C0.432,47.28 0.432,47.28 0.432,47.28 C0.432,47.28 0.432,47.328 0.48,47.328 C0.48,47.376 0.528,47.424 0.528,47.424 C0.528,47.424 0.576,47.472 0.576,47.472 C0.624,47.52 0.672,47.52 0.72,47.568 C0.72,47.568 0.768,47.616 0.768,47.616 C0.768,47.616 0.816,47.664 0.816,47.664 C0.816,47.664 0.864,47.664 0.864,47.664 C0.864,47.664 0.912,47.664 0.912,47.664 C0.96,47.664 1.008,47.712 1.104,47.712 L46.56,47.712 C46.56,47.712 46.56,47.712 46.56,47.712 C46.56,47.712 46.56,47.712 46.56,47.712 C46.608,47.712 46.704,47.712 46.752,47.664 C46.752,47.664 46.8,47.664 46.8,47.664 C46.8,47.664 46.848,47.664 46.848,47.664 C46.848,47.664 46.896,47.664 46.896,47.616 C46.944,47.616 46.944,47.568 46.992,47.568 C47.04,47.568 47.04,47.52 47.088,47.472 C47.088,47.472 47.136,47.424 47.136,47.424 C47.136,47.376 47.184,47.376 47.184,47.328 C47.184,47.328 47.184,47.28 47.232,47.28 C47.232,47.28 47.232,47.28 47.232,47.28 C47.232,47.232 47.232,47.184 47.232,47.136 C47.232,47.088 47.232,47.088 47.232,47.04 C47.232,47.04 47.232,47.04 47.232,47.04 L47.232,18.72 C47.184,18.672 47.184,18.672 47.184,18.672 C47.184,18.672 47.184,18.672 47.184,18.672 Z M41.376,15.216 L45.504,18.672 L41.376,22.08 L41.376,15.216 Z M34.56,2.544 L39.12,7.104 L34.56,7.104 L34.56,2.544 Z M7.488,1.584 L33.216,1.584 L33.216,7.728 C33.216,8.112 33.504,8.4 33.888,8.4 L40.032,8.4 L40.032,23.184 L29.664,31.824 L29.04,32.304 C29.04,32.304 29.04,32.304 29.04,32.304 L23.808,36.672 L7.488,23.04 L7.488,1.584 Z M6.192,15.312 L6.192,22.032 L2.16,18.672 L6.192,15.312 Z M1.776,20.112 L17.088,32.832 L1.776,45.6 L1.776,20.112 Z M2.976,46.368 L18.192,33.744 L23.424,38.112 C23.568,38.208 23.712,38.256 23.856,38.256 C24,38.256 24.144,38.208 24.288,38.112 L29.52,33.744 L44.736,46.368 L2.976,46.368 Z M45.888,45.6 L34.56,36.192 L30.528,32.832 L45.84,20.112 L45.84,45.6 L45.888,45.6 Z" id="Shape"></path>
                        </g>
                    </g>
                </g>
            </g>
        </g>
    </g>
</svg>