<svg width="31" height="27" xmlns="http://www.w3.org/2000/svg"><path fill="#065466" d="M24.143 18.643V10.07a6.01 6.01 0 0 1-.77.737c-1.596 1.228-3.203 2.478-4.755 3.772-.837.703-1.875 1.563-3.035 1.563h-.023c-1.16 0-2.198-.86-3.035-1.563-1.552-1.294-3.159-2.544-4.755-3.772A6.01 6.01 0 0 1 7 10.07v8.572c0 .19.167.357.357.357h16.429c.19 0 .357-.167.357-.357zm0-11.73c0-.28.067-.77-.357-.77H7.357A.367.367 0 0 0 7 6.5c0 1.272.636 2.377 1.64 3.17a692.042 692.042 0 0 1 4.476 3.538c.592.48 1.663 1.506 2.444 1.506h.023c.78 0 1.852-1.027 2.444-1.506a692.042 692.042 0 0 1 4.475-3.538c.726-.57 1.64-1.808 1.64-2.757zM25.57 6.5v12.143a1.79 1.79 0 0 1-1.785 1.786H7.357a1.791 1.791 0 0 1-1.786-1.786V6.5c0-.982.804-1.786 1.786-1.786h16.429A1.79 1.79 0 0 1 25.571 6.5z"/></svg>