<?xml version="1.0" encoding="UTF-8" standalone="no"?>
<svg width="16px" height="16px" viewBox="0 0 16 16" version="1.1" xmlns="http://www.w3.org/2000/svg" xmlns:xlink="http://www.w3.org/1999/xlink">
    <!-- Generator: Sketch 48 (47235) - http://www.bohemiancoding.com/sketch -->
    <title>error</title>
    <desc>Created with Sketch.</desc>
    <defs></defs>
    <g id="zip_error" stroke="none" stroke-width="1" fill="none" fill-rule="evenodd" transform="translate(-92.000000, -242.000000)">
        <g id="Group-3" transform="translate(91.000000, 240.000000)" fill="#D53333">
            <path d="M10.114868,14.5624983 L10.114868,12.8660677 C10.114868,12.7053532 9.98986789,12.5714245 9.82915342,12.5714245 L8.11486566,12.5714245 C7.95415118,12.5714245 7.82915103,12.7053532 7.82915103,12.8660677 L7.82915103,14.5624983 C7.82915103,14.7232128 7.95415118,14.8571415 8.11486566,14.8571415 L9.82915342,14.8571415 C9.98986789,14.8571415 10.114868,14.7232128 10.114868,14.5624983 Z M10.0970109,11.2232086 L10.2577254,7.12498942 C10.2577254,7.07141793 10.2309396,6.99998927 10.1684395,6.95534636 C10.114868,6.91070345 10.0345108,6.85713196 9.95415357,6.85713196 L7.98986551,6.85713196 C7.90950827,6.85713196 7.82915103,6.91070345 7.77557954,6.95534636 C7.71307947,6.99998927 7.68629372,7.08927509 7.68629372,7.14284658 L7.83807961,11.2232086 C7.83807961,11.3392802 7.97200835,11.428566 8.14165141,11.428566 L9.79343909,11.428566 C9.95415357,11.428566 10.0880823,11.3392802 10.0970109,11.2232086 Z M9.97201073,2.88391294 L16.8291618,15.4553565 C17.0255906,15.8035712 17.016662,16.2321431 16.8113046,16.5803578 C16.6059472,16.9285725 16.2309468,17.1428585 15.8291606,17.1428585 L2.11485851,17.1428585 C1.71307231,17.1428585 1.33807187,16.9285725 1.13271448,16.5803578 C0.927357091,16.2321431 0.918428509,15.8035712 1.11485731,15.4553565 L7.97200835,2.88391294 C8.16843715,2.51784107 8.55236618,2.28569794 8.97200954,2.28569794 C9.3916529,2.28569794 9.77558192,2.51784107 9.97201073,2.88391294 Z" id="error"></path>
        </g>
    </g>
</svg>