<svg width="16" height="16" xmlns="http://www.w3.org/2000/svg"><path d="M9.115 12.562v-1.696a.29.29 0 0 0-.286-.295H7.115a.29.29 0 0 0-.286.295v1.696a.29.29 0 0 0 .286.295h1.714a.29.29 0 0 0 .286-.295zm-.018-3.339l.16-4.098a.216.216 0 0 0-.089-.17c-.053-.044-.133-.098-.214-.098H6.99c-.08 0-.16.054-.214.098a.249.249 0 0 0-.09.188l.152 4.08c0 .116.134.206.304.206h1.651c.161 0 .295-.09.304-.206zM8.972.883l6.857 12.572a1.143 1.143 0 0 1-1 1.688H1.115a1.143 1.143 0 0 1-1-1.688L6.972.884a1.136 1.136 0 0 1 2 0z" fill="#D53333" fill-rule="evenodd"/></svg>