<svg width="17" height="17" xmlns="http://www.w3.org/2000/svg"><g fill="none" fill-rule="evenodd"><circle fill="#EFEFEF" cx="8.5" cy="8.5" r="8.5"/><path d="M13 7.28v3.988a.806.806 0 0 1-.804.803H4.804A.806.806 0 0 1 4 11.268V7.28c.15.166.321.312.507.437.834.568 1.678 1.135 2.496 1.733.422.311.945.693 1.492.693h.01c.547 0 1.07-.382 1.492-.693a96.195 96.195 0 0 1 2.5-1.733c.182-.125.352-.271.503-.437zm0-1.476c0 .562-.417 1.07-.859 1.376-.783.542-1.572 1.085-2.35 1.632-.327.226-.88.688-1.286.688h-.01c-.407 0-.96-.462-1.286-.688-.778-.547-1.567-1.09-2.345-1.632C4.507 6.939 4 6.37 4 5.914 4 5.422 4.266 5 4.804 5h7.392a.81.81 0 0 1 .804.804z" fill="#FFF"/></g></svg>