<svg width="18" height="18" xmlns="http://www.w3.org/2000/svg"><path d="M11.429 14.214V12.43a.354.354 0 0 0-.358-.358H10V6.357c0-.2-.156-.357-.357-.357H6.07c-.2 0-.357.156-.357.357v1.786c0 .2.157.357.357.357h1.072v3.571H6.07c-.2 0-.357.157-.357.358v1.785c0 .201.157.357.357.357h5a.353.353 0 0 0 .358-.357zM10 4.214V2.43a.353.353 0 0 0-.357-.358H7.5c-.2 0-.357.157-.357.358v1.785c0 .201.156.357.357.357h2.143c.2 0 .357-.156.357-.357zm7.143 4.643A8.574 8.574 0 0 1 8.57 17.43 8.574 8.574 0 0 1 0 8.857 8.574 8.574 0 0 1 8.571.286a8.574 8.574 0 0 1 8.572 8.571z" fill="#EFEFEF" fill-rule="evenodd"/></svg>