<svg id="illustration" class="anim hidden visible" x="0px" y="0px" width="320px" viewBox="0 0 942 570" version="1.1" xmlns="http://www.w3.org/2000/svg" xmlns:xlink="http://www.w3.org/1999/xlink"><style>.f0{fill:none}.f1{fill:#BDE4E1}.f2{fill:#095F6D}.f3{fill:#065466}.f4{fill:#45D1A6}.f5{fill:#9E7238}.f6{fill:#FBEED0}.f7{fill:#FFABEB}.f8{fill:#FFF}.f9{fill:#D7D7D7}.f10{fill:#C3EDF0}.f11{fill:#0CCDED}.s0{stroke:none}.s1,.s2{stroke-miterlimit:10}.s1{stroke:#065466}.s2{stroke:#FFF}.s_w1{stroke-width:1}.s_w2{stroke-width:2}.s_w3{stroke-width:3}.s_w4{stroke-width:4}.s_w5{stroke-width:5}</style><g class="f1"><path d="M451.7,388.4c15.3,0,27.8-12.5,27.8-27.8v-6.3c0-15.3-12.5-27.8-27.8-27.8H336.2c-15.3,0-27.8-12.5-27.8-27.8v-6.3c0-15.3,12.5-27.8,27.8-27.8h186c15.3,0,27.8-12.5,27.8-27.8v-6.4c0-15.3-12.5-27.8-27.8-27.8H154.3c-15.3,0-27.8,12.5-27.8,27.8v6.4c0,15.3,12.5,27.8,27.8,27.8h14.6c15.3,0,27.8,12.5,27.8,27.8v6.3c0,15.3-12.5,27.8-27.8,27.8H83.8C68.5,326.5,56,339,56,354.3v6.3c0,15.3,12.5,27.8,27.8,27.8L451.7,388.4L451.7,388.4z M457.2,388.3h75.4H770c15.3,0,27.8-12.5,27.8-27.8v-6.3c0-15.3-12.5-27.8-27.8-27.8H598.5c15.3,0,27.8-12.5,27.8-27.8v-6.3c0-15.3-12.5-27.8-27.8-27.8H482.9c-15.3,0-152,0.1-167.3,0.1h-85.1c-15.3,0-27.8,12.5-27.8,27.8v6.3c0,15.3,12.5,27.8,27.8,27.8C230.5,326.5,472.5,388.3,457.2,388.3z M835.2,388.1c15.3,0,27.8-12.5,27.8-27.8V354c0-15.3-12.5-27.8-27.8-27.8h-85.1c-15.3,0-27.8-12.5-27.8-27.8v-6.3c0-15.3,12.5-27.8,27.8-27.8h14.6c15.3,0,27.8-12.5,27.8-27.8v-6.4c0-15.3-12.5-27.8-27.8-27.8H396.8c-15.3,0-27.8,12.5-27.8,27.8v6.4c0,15.3,12.5,27.8,27.8,27.8h186c15.3,0,27.8,12.5,27.8,27.8v6.3c0,15.3-12.5,27.8-27.8,27.8H467.3c-15.3,0-27.8,12.5-27.8,27.8v6.3c0,15.3,12.5,27.8,27.8,27.8L835.2,388.1L835.2,388.1z"></path><circle cx="471" cy="274.5" r="250"></circle></g><rect class="f8" x="63" y="393.5" width="800" height="149.7"></rect><g class="f9"><path d="M595.8,512.4h-246c-1.1,0-2-0.9-2-2l0,0c0-1.1,0.9-2,2-2h246c1.1,0,2,0.9,2,2l0,0C597.8,511.5,596.9,512.4,595.8,512.4z"></path><path d="M520.6,536.8h-96c-1.1,0-2-0.9-2-2l0,0c0-1.1,0.9-2,2-2h96c1.1,0,2,0.9,2,2l0,0C522.6,535.9,521.7,536.8,520.6,536.8z"></path></g><g class="f3"><path d="M314.4,153.9H271c-1.4,0-2.5-1.1-2.5-2.5s1.1-2.5,2.5-2.5h43.4c1.4,0,2.5,1.1,2.5,2.5C316.9,152.8,315.8,153.9,314.4,153.9z"></path><path d="M337.6,148.9h10.7c1.4,0,2.5,1.1,2.5,2.5s-1.1,2.5-2.5,2.5h-21.4c-1.4,0-2.5-1.1-2.5-2.5s1.1-2.5,2.5-2.5H337.6"></path><path d="M262.1,135.2c-1.4,0-2.5-1.1-2.5-2.5s1.1-2.5,2.5-2.5H304c0.9-6.9,5.3-12.9,11.7-15.7c1.4-16.4,15-29.1,31.7-29.1c10.1,0,19.4,4.7,25.4,12.7c3.2-2.2,6.9-3.3,10.8-3.3c9.7,0,17.8,7.1,19.1,16.5c8.5,2.5,14.8,10,15.8,18.8h51.8c1.4,0,2.5,1.1,2.5,2.5s-1.1,2.5-2.5,2.5h-54.2c-1.4,0-2.5-1.1-2.5-2.5c0-8.2-5.8-15.3-13.7-16.9c-1.1-0.2-1.9-1.2-2-2.3c-0.4-7.7-6.6-13.7-14.3-13.7c-3.6,0-7,1.3-9.7,3.8c-0.5,0.5-1.3,0.7-2,0.6s-1.4-0.5-1.8-1.2c-4.9-7.9-13.4-12.6-22.7-12.6c-14.5,0-26.3,11.4-26.8,25.9c0,1-0.7,2-1.7,2.3c-6,2-10.1,7.7-10.1,14c0,1.4-1.1,2.5-2.5,2.5L262.1,135.2L262.1,135.2z"></path><path d="M717.6,181.7c1.5,0,2.6-1.2,2.5-2.7c-0.1-1.3-1.3-2.3-2.7-2.3h-41.7l0,0c-0.9-6.9-5.3-12.8-11.7-15.6l0,0c-1.4-16.4-15-29.1-31.7-29.1c-10.1,0-19.4,4.7-25.4,12.7c0,0,0,0-0.1,0c-3.2-2.2-6.9-3.3-10.8-3.3c-9.7,0-17.7,7.1-19.1,16.5l0,0c-8.5,2.5-14.7,10-15.7,18.8l0,0h-26.3c-1.3,0-2.6,1-2.7,2.3c-0.1,1.5,1,2.7,2.5,2.7h28.8c1.4,0,2.5-1.1,2.5-2.5c0-8.1,5.8-15.2,13.7-16.9c1.1-0.2,2-1.1,2-2.3c0.3-7.7,6.6-13.7,14.3-13.7c3.6,0,7,1.3,9.7,3.8c0.5,0.5,1.3,0.7,2,0.6s1.4-0.5,1.8-1.2c4.9-7.9,13.4-12.6,22.7-12.6c14.5,0,26.3,11.4,26.8,25.9c0,1,0.7,1.9,1.7,2.3c6,2,10,7.6,10.1,14c0,1.4,1.1,2.6,2.5,2.6H717.6L717.6,181.7z"></path></g><g class="s0"><g class="f8"><path d="M769.9,373.5c-7.1,0-12.9,5-12.9,11.2c0,2.2,0.7,4.3,2,6h-18v-16.4h-13.9v-61.6h-39.5v61.6h-13.8v16.4h-17.5c0.5-1.1,0.8-2.3,0.8-3.5c0-4.4-3.7-8.1-8.5-8.6c-1-7.8-8.3-13.8-17.2-13.8c-6.9,0-12.9,3.6-15.7,8.9c-0.1,0-0.3,0-0.4,0v-99.6h15l66.8-67.4l10.6-10.7l77.3,78.1l0,0h15V369c-1-0.8-2.1-1.5-3.3-2.1c-0.2-0.1-0.5-0.2-0.7-0.3c-0.5-0.2-1-0.4-1.5-0.6c-0.2-0.1-0.4-0.1-0.6-0.2c-1.2-0.4-2.4-0.6-3.7-0.8c-0.5-0.1-0.9-0.1-1.4-0.1c-0.3,0-0.6,0-0.9,0c-7.2,0-13.3,3.6-16.2,8.9C771.1,373.5,770.5,373.5,769.9,373.5z M781.2,345.4v-32.7h-34.9v32.7H781.2z M722.3,276.2v-27.9h-29.8v27.9H722.3z M668.7,345.4v-32.7h-34.9v32.7H668.7z"></path><polygon points="783.4,206.5 783.4,220.6 766.1,220.6 766.1,206.5 766.1,192.4 783.4,192.4"></polygon></g><g class="f10"><rect x="746.3" y="312.6" width="34.9" height="32.7"></rect><rect x="633.8" y="312.6" width="34.9" height="32.7"></rect><rect x="692.5" y="248.2" width="29.8" height="27.9"></rect></g><g class="f9"><polygon points="697.1,206.5 630.3,273.9 615.3,273.9 606.1,273.9 606.1,206.5"></polygon><polygon points="809.2,206.5 809.2,273.9 800,273.9 785,273.9 718.2,206.5 766.1,206.5 766.1,220.6 783.4,220.6 783.4,206.5"></polygon><rect x="687.6" y="312.6" width="39.5" height="61.6"></rect><polygon points="741,374.3 741,390.6 673.8,390.6 673.8,374.3 687.6,374.3 727.1,374.3"></polygon></g><g class="f3"><path d="M615.3,276.3h-9.2c-1.3,0-2.4-1.1-2.4-2.4v-67.4c0-1.3,1.1-2.4,2.4-2.4h91c1.3,0,2.4,1.1,2.4,2.4c0,1.3-1.1,2.4-2.4,2.4h-88.6v62.6h6.8c1.3,0,2.4,1.1,2.4,2.4S616.6,276.3,615.3,276.3z"></path><path d="M809.2,276.3H800c-1.3,0-2.4-1.1-2.4-2.4s1.1-2.4,2.4-2.4h6.8v-62.6h-23.4c-1.3,0-2.4-1.1-2.4-2.4c0-1.3,1.1-2.4,2.4-2.4h25.8c1.3,0,2.4,1.1,2.4,2.4v67.4C811.6,275.3,810.6,276.3,809.2,276.3z"></path><path d="M785,276.3c-0.6,0-1.2-0.2-1.7-0.7l-66.8-67.4c-0.7-0.7-0.9-1.7-0.5-2.6c0.4-0.9,1.2-1.5,2.2-1.5h47.9c1.3,0,2.4,1.1,2.4,2.4c0,1.3-1.1,2.4-2.4,2.4H724l62.7,63.3c0.9,0.9,0.9,2.5,0,3.4C786.2,276.1,785.6,276.3,785,276.3z"></path><path d="M673.8,393c-1.3,0-2.4-1.1-2.4-2.4v-16.4c0-1.3,1.1-2.4,2.4-2.4h13.8c1.3,0,2.4,1.1,2.4,2.4s-1.1,2.4-2.4,2.4h-11.5v14C676.2,391.9,675.1,393,673.8,393z"></path><path d="M741,393c-1.3,0-2.4-1.1-2.4-2.4v-14h-11.5c-1.3,0-2.4-1.1-2.4-2.4s1.1-2.4,2.4-2.4H741c1.3,0,2.4,1.1,2.4,2.4v16.4C743.4,391.9,742.3,393,741,393z"></path><path d="M727.1,376.7h-39.5c-1.3,0-2.4-1.1-2.4-2.4v-61.6c0-1.3,1.1-2.4,2.4-2.4h39.5c1.3,0,2.4,1.1,2.4,2.4v61.6C729.5,375.6,728.5,376.7,727.1,376.7z M690,371.9h34.7V315H690V371.9z"></path><path d="M668.7,347.8h-34.9c-1.3,0-2.4-1.1-2.4-2.4v-32.7c0-1.3,1.1-2.4,2.4-2.4h34.9c1.3,0,2.4,1.1,2.4,2.4v32.7C671.1,346.7,670,347.8,668.7,347.8z M636.2,343h30.1v-28h-30.1V343z"></path><path d="M781.2,347.8h-34.9c-1.3,0-2.4-1.1-2.4-2.4v-32.7c0-1.3,1.1-2.4,2.4-2.4h34.9c1.3,0,2.4,1.1,2.4,2.4v32.7C783.6,346.7,782.5,347.8,781.2,347.8z M748.7,343h30.1v-28h-30.1V343z"></path><path d="M722.3,278.6h-29.8c-1.3,0-2.4-1.1-2.4-2.4v-27.9c0-1.3,1.1-2.4,2.4-2.4h29.8c1.3,0,2.4,1.1,2.4,2.4v27.9C724.7,277.5,723.6,278.6,722.3,278.6z M694.9,273.8h25v-23.1h-25V273.8z"></path><path d="M783.4,223h-17.3c-1.3,0-2.4-1.1-2.4-2.4v-28.3c0-1.3,1.1-2.4,2.4-2.4c1.3,0,2.4,1.1,2.4,2.4v25.9H781v-25.9c0-1.3,1.1-2.4,2.4-2.4c1.3,0,2.4,1.1,2.4,2.4v28.3C785.8,222,784.8,223,783.4,223z"></path><path d="M791.8,194.8h-33.9c-1.3,0-2.4-1.1-2.4-2.4c0-1.3,1.1-2.4,2.4-2.4h33.9c1.3,0,2.4,1.1,2.4,2.4S793.1,194.8,791.8,194.8z"></path><path d="M829.3,393h-15.7c-1.3,0-2.4-1.1-2.4-2.4s1.1-2.4,2.4-2.4h15.7c1.3,0,2.4,1.1,2.4,2.4S830.6,393,829.3,393z"></path><path d="M604,393h-17c-1.3,0-2.4-1.1-2.4-2.4s1.1-2.4,2.4-2.4h17c1.3,0,2.4,1.1,2.4,2.4S605.3,393,604,393z"></path><path d="M656.3,393h-52.8c-0.8,0-1.5-0.4-1.9-1c-1.6-2.2-2.4-4.8-2.4-7.4c0-7.5,6.7-13.6,14.9-13.6c0.5,0,1.1,0,1.6,0.1h0.3c1.3,0.1,2.3,1.3,2.2,2.6c-0.1,1.3-1.3,2.3-2.6,2.1h-0.3c-0.4-0.1-0.8-0.1-1.1-0.1c-5.6,0-10.1,3.9-10.1,8.8c0,1.2,0.3,2.5,0.9,3.6h51.4c1.3,0,2.4,1.1,2.4,2.4C658.7,391.9,657.6,393,656.3,393z"></path><path d="M813.6,393H759c-1.3,0-2.4-1.1-2.4-2.4s1.1-2.4,2.4-2.4h52.9c0.1-0.4,0.1-0.7,0.1-1.1c0-3.1-2.9-5.8-6.6-6.2c-1.1-0.1-2-1-2.1-2.1c-0.4-3.1-2.1-6-4.8-8.1c-1-0.8-1.2-2.3-0.4-3.4c0.8-1,2.3-1.2,3.4-0.4c3.2,2.5,5.3,5.8,6.2,9.5c5.3,1.3,9.1,5.6,9.1,10.7c0,1.6-0.4,3.1-1.1,4.6C815.3,392.5,814.5,393,813.6,393z"></path><path d="M759,393H656.3c-0.8,0-1.6-0.4-2-1.1s-0.5-1.6-0.1-2.3c0.4-0.8,0.6-1.6,0.6-2.4c0-3.1-2.7-5.8-6.3-6.2c-1.1-0.1-2-1-2.1-2.1c-0.8-6.7-7.2-11.7-14.9-11.7c-5.8,0-11.1,3-13.6,7.6c-0.5,0.9-1.4,1.4-2.3,1.3c-0.2,0-0.3,0-0.4,0c-1.2-0.1-2.1-1.2-2.1-2.4v-99.6c0-1.3,1.1-2.4,2.4-2.4h14l76.6-77.4c0.9-0.9,2.5-0.9,3.4,0l76.6,77.4h14c1.3,0,2.4,1.1,2.4,2.4V369c0,0.9-0.5,1.8-1.4,2.2c-0.8,0.4-1.8,0.3-2.5-0.3c-0.9-0.7-1.8-1.3-2.9-1.8c-0.2-0.1-0.4-0.2-0.6-0.3c-0.5-0.2-0.9-0.4-1.3-0.5l-0.6-0.2c-1-0.3-2.1-0.5-3.2-0.7c-0.4,0-0.8-0.1-1.2-0.1H788c-6,0-11.5,3-14.1,7.6c-0.5,0.9-1.4,1.3-2.4,1.2c-0.4-0.1-1-0.1-1.5-0.1c-5.8,0-10.5,3.9-10.5,8.8c0,1.6,0.5,3.2,1.5,4.6c0.5,0.7,0.6,1.7,0.2,2.5C760.8,392.5,760,393,759,393z M659.4,388.2h95.8c-0.4-1.2-0.5-2.4-0.5-3.6c0-7.5,6.9-13.6,15.3-13.6c0.2,0,0.3,0,0.5,0c3.7-5.4,10.2-8.8,17.5-8.8h0.9h0.1c0.5,0,1,0.1,1.6,0.1c1.4,0.2,2.8,0.4,4.1,0.8l0.7,0.2c0.7,0.2,1.2,0.5,1.8,0.7c0.2,0.1,0.4,0.2,0.6,0.3v-88.2H785c-0.6,0-1.3-0.3-1.7-0.7L707.7,199L632,275.6c-0.4,0.5-1.1,0.7-1.7,0.7h-12.6v91c3.6-3.1,8.5-5,13.7-5c9.4,0,17.4,6,19.3,14.1c5.1,1.3,8.8,5.6,8.8,10.7C659.5,387.5,659.5,387.9,659.4,388.2z"></path><path d="M813.8,393h-737c-0.8,0-1.5-0.7-1.5-1.5v-2c0-0.8,0.7-1.5,1.5-1.5h737c0.8,0,1.5,0.7,1.5,1.5v2C815.3,392.3,814.7,393,813.8,393z"></path></g></g><g class="f4 s1 s_w4"><path d="M312.3,294.9c-9.6,29.5-49,40.9-75.9,29.5c-19.7-8.3-36.2-35.2-25.9-54.9c10.4-19.7,31.1-33.1,52.8-35.2c28-1,54.9,23.8,51.1,51.4C314.1,288.8,313.4,291.8,312.3,294.9"></path><path d="M351.8,338.4c-4.8,14.8-24.5,20.5-37.9,14.8c-9.8-4.1-18.1-17.6-12.9-27.4s15.5-16.6,26.4-17.6c14-0.5,27.4,11.9,25.5,25.7C352.7,335.4,352.4,336.9,351.8,338.4"></path><path d="M631.4,364.7c8.9,0,16.3,6,17.2,13.8c4.8,0.5,8.5,4.2,8.5,8.6c0,1.2-0.3,2.4-0.8,3.5h-52.8c-1.2-1.7-2-3.8-2-6c0-6.2,5.6-11.2,12.5-11.2c0.4,0,0.9,0,1.3,0.1l0,0c0.1,0,0.3,0,0.4,0C618.5,368.3,624.5,364.7,631.4,364.7z"></path><path d="M757,384.6c0-6.2,5.8-11.2,12.9-11.2c0.6,0,1.2,0.1,1.7,0.1c2.9-5.2,9-8.9,16.2-8.9c0.3,0,0.6,0,0.9,0c0.5,0,0.9,0.1,1.4,0.1c1.3,0.1,2.5,0.4,3.7,0.8c0.2,0.1,0.4,0.1,0.6,0.2c0.5,0.2,1,0.4,1.5,0.6c0.2,0.1,0.5,0.2,0.7,0.3c1.2,0.6,2.3,1.3,3.3,2.1c3.1,2.5,5.2,5.9,5.7,9.7c4.9,0.5,8.8,4.2,8.8,8.6c0,1.2-0.3,2.4-0.9,3.5H759C757.8,388.9,757,386.8,757,384.6z"></path></g><g class="f3 s1 s_w1"><path d="M294.3,308.2c-0.1,0.4-3.6,8.6-14.2,6.1c-2.2-0.5-3.9-1.3-5.3-2.4c3.1-2,5.6-4.4,7.1-6.5c4.4-6,5.5-11.5,5.6-11.7l-2-0.4c0,0.1-1.1,5.2-5.2,10.9c-1.5,2.1-3.9,4.4-7,6.3c-4.2-4.6-3.4-11.2-3.3-11.6l-2.1-0.3c0,0.1-1,7.6,3.6,12.9c-5.2,2.7-11.8,4.3-19.2,2.5c-3.7-0.9-6.5-2.6-8.5-4.7c1.7-0.5,3.2-1.5,4.3-2.8c3-3.7,2.4-9,2.4-9.2l-2.1,0.2c0,0,0.5,4.7-2,7.7c-1,1.2-2.4,2-4.2,2.4c-3.5-4.5-4.2-9.6-4.2-10l-2.1,0.2c0,0.1,0.6,5.1,3.9,9.9c-7.6-0.1-10.4-6.5-10.5-6.7l-1.9,0.8c0,0.1,3.4,8,12.6,8c0.4,0,0.8,0,1.3-0.1h0.1c2.4,2.7,5.7,5.1,10.4,6.2c2,0.5,2.5,0.7,4.4,0.8l1.4,73.3l3.1,0.4l-0.9-73.7c5-0.2,9.5-1.7,13.2-3.8c1.7,1.4,3.8,2.6,6.7,3.3c1.5,0.4,2.9,0.5,4.2,0.5c9.1,0,12.4-7.8,12.4-7.9L294.3,308.2z"></path><g class="s0"><path d="M337.7,338.7l-2-0.5c0,0-1.3,4.5-4.7,6.4c-1.4,0.8-3,1-4.8,0.6c-1.6-5.5-0.3-10.5-0.2-10.8l-2-0.5c0,0.1-1.3,5-0.1,10.7c-7-2.9-7.2-9.9-7.2-10.2h-2.1c0,0.1,0.2,8.7,8.6,12.2c0.4,0.2,0.8,0.3,1.2,0.4h0.1l2.4,0.5c0,0,3.5-0.2,5-1C336.2,344.1,337.6,338.9,337.7,338.7z"></path><rect x="325.3" y="346.1" width="3.8" height="45.6"></rect></g></g><g class="s1 s_w4"><path class="f2" d="M500,297.5c0,0,25.6,9.9,23.6,73.4h-12.9l-8.3-12.5L500,297.5z"></path><path class="f3" d="M480.2,290h-15.1c-12.6,0-23.5,7.9-27.9,19c-10.2,0-31.4,0-37.8,0c-8.5,0-8.5-9.9-8.5-9.9v-35.6h-19.5c0,0,0,12.2,0,38.8s27.8,26.5,27.8,26.5h35.9v59.5l75.1,0.5V320C510.2,303.5,496.7,290,480.2,290z"></path><g class="f5"><path d="M505.3,240.5c0,0,1.3,6.5,0,8.3s-1.9,2.7-3.6,2.9c-1.8,0.2-6.8,0-6.8,0l-0.8-14.1l8.7-0.7L505.3,240.5z"></path><path d="M507,203.8c-3.4-3.9-3.9,0-3.9,0s0.5,6.7,0,9.1c-0.5,2.4-2.9,3.5-7.3,3.5c-4.3,0-13.5-1.9-23.6-2.9s-13.2-0.5-17.1,0c-3.8,0.5-5.3,10.2-5.3,10.2s0,0-5.3-0.5s-6.3,6.8-6.3,6.8s-0.5,13.5,0,17.4s6.3,4.4,6.3,4.4l55.2-9.7c0,0,4.4-0.5,10.2-3.9s2.9-3.9,6.3-11.3C519.6,219.5,510.4,207.7,507,203.8z"></path><path class="f0" d="M460,225.2c0,3,1.4,5.4,3,5.4"></path></g><g class="f6"><path d="M462,230c0,0-16.7,6.3-16.7,21.8s0,56.7,0,56.7l54.5,1v-67.4L462,230z"></path><path d="M391,260.5c0,0-1.7-17.7-13.3-17.7l0.4,17.7H391z"></path><path d="M523.6,370.9c0,0-1.7,17.7-13.3,17.7l0.4-17.7H523.6z"></path><g class="s_w3"><path d="M445.1,255.4c0,0-6-1.6-6.3,1.7c-0.3,3.3,0,6.7,0,6.7s-0.5,1.9,3.1,1.9s3.6,0.1,3.6,0.1L445.1,255.4z"></path><path d="M500.1,255.4c0,0,6-1.6,6.3,1.7c0.3,3.3,0,6.7,0,6.7s0.5,1.9-3.1,1.9c-3.6,0.1-3.6,0.1-3.6,0.1L500.1,255.4z"></path></g></g><g class="f0 s_w3"><line x1="480.8" y1="248.9" x2="492.1" y2="248.9"></line><line x1="467.1" y1="248.9" x2="457.1" y2="248.9"></line><line x1="474.8" y1="248.9" x2="474.8" y2="269.7"></line><line x1="467.1" y1="268.2" x2="475.8" y2="268.2"></line><g class="s_w2"><line x1="482.5" y1="255.1" x2="486.5" y2="255.1"></line><line x1="458.5" y1="252.8" x2="462.1" y2="252.8"></line></g></g><g class="f0 s2"><line x1="449.7" y1="368.2" x2="449.7" y2="316.4"></line><line x1="493.6" y1="365.9" x2="493.6" y2="315.5"></line></g><g class="f8"><rect x="435.1" y="366.4" width="75.1" height="121"></rect><rect class="s0" x="447.7" y="336" width="48" height="28.8"></rect></g><g class="f3 s0"><rect x="470.8" y="405.5" width="4" height="82"></rect><path d="M435.1,487.5c0,0,1.6-17.1,18.9-17.1s17.3,17.1,17.3,17.1H435.1z"></path><path d="M474,487.5c0,0,1.6-17.1,18.9-17.1s17.3,17.1,17.3,17.1H474z"></path></g><path class="f5" d="M499.9,309.5c-0.3-5.5,0-29,0-29s-4.4,1.2-6.8,0c-2.3-1.2-9.2-6-12.3-6s-7.3,4.8-8.2,4.8s-4.2-4.7-8.2-4.8s-10.3,5.7-12.5,5.7s-6.5-0.2-6.5-0.2v1.2h0.1v23c0,0-0.3,2.5,0,5.7s1,6.8,8.3,8.7c7.3,1.8,9.3,5,16,5.3s6.8-1.2,12.7-2.3c5.8-1.2,7.7-1,11.5-3.8S500.2,315,499.9,309.5z"></path><path class="f7 s_w3" d="M466.1,286.5h13c0,0-0.3,6.8-6.5,7C466.5,293.7,466.1,286.5,466.1,286.5z"></path></g><g class="s0"><g class="f3"><path d="M348.1,211.8c-1.1,0-2-0.9-2-2v-24.1c0-1.1,0.9-2,2-2h57.7c1.1,0,2,0.9,2,2v24.1c0,1.1-0.9,2-2,2H348.1z"></path>--&gt;<path d="M405.8,185.7v24.1h-57.7v-24.1H405.8 M405.8,181.7h-57.7c-2.2,0-4,1.8-4,4v24.1c0,2.2,1.8,4,4,4h57.7c2.2,0,4-1.8,4-4v-24.1C409.8,183.5,408,181.7,405.8,181.7L405.8,181.7z"></path><path d="M378.3,242.8h-2.8v-8.9c0-3,2-5.7,4.9-6.6l33.2-10.1c1.2-0.4,2-1.5,2-2.7V202c0-1.6-1.3-2.8-2.8-2.8h-4.3v-2.8h4.3c3.1,0,5.7,2.5,5.7,5.7v12.4c0,2.5-1.6,4.7-4,5.4L381.2,230c-1.7,0.5-2.8,2.1-2.8,3.9L378.3,242.8L378.3,242.8z"></path></g><path class="f11" d="M402.9,209.7H351c-1.6,0-2.9-1.3-2.9-2.7v-18.6c0-1.5,1.2-2.7,2.9-2.7h51.9c1.6,0,2.9,1.2,2.9,2.7V207C405.7,208.5,404.5,209.7,402.9,209.7z"></path></g><g class="f8 s1 s_w4"><path d="M378.9,484h-4c-2.2,0-4-2.8-4-6.2V249c0-3.4,1.8-6.2,4-6.2h4c2.2,0,4,2.8,4,6.2v229C382.9,481.2,381.1,484,378.9,484z"></path></g><g class="f0 s1 s_w4"><circle cx="561.3" cy="435.9" r="28.6"></circle><g class="f8"><path d="M532.7,437.9v45.3c0,0,0.7,7.2,28.4,7.2s28.8-6.4,28.8-6.4v-46.1H532.7z"></path><ellipse cx="561.3" cy="437.2" rx="28.6" ry="6.6"></ellipse></g><path class="f11" d="M549.3,443.8v17.1c0,0,0.3,3.2,3.2,3.2s2.9-3.2,2.9-3.2v-3.8c0,0-0.1-2.4,1.8-2.4c1.9,0,2.2,2.4,2.2,2.4v8.2c0,0,0.1,3.3,2.9,3.3s2.7-3.3,2.7-3.3s-0.6-2.4,0.6-3.6c0.5-0.5,2.2-0.6,2.9-1.5c0.8-1.2,0.6-3.2,0.6-3.2v-12.6L549.3,443.8z"></path></g></svg>