<svg width="87" height="87" xmlns="http://www.w3.org/2000/svg"><g fill="none" fill-rule="evenodd"><circle fill="#45D1A6" cx="43.5" cy="43.5" r="43.5"/><g fill="#FFF" fill-rule="nonzero"><path d="M43.36 53.864a.56.56 0 0 0-.576.57v16.101a2.29 2.29 0 0 1-2.305 2.283 2.29 2.29 0 0 1-2.304-2.283V49.707c0-2.528-1.522-4.81-3.908-5.789l-1.564-.652a4.186 4.186 0 0 1-2.592-3.872V28.837h8.147a.56.56 0 0 0 .576-.57.56.56 0 0 0-.576-.571h-8.106V15.14h2.345v5.38c.041.327.288.571.617.571a.56.56 0 0 0 .577-.57v-5.38h2.345v5.38c0 .326.247.57.576.57a.56.56 0 0 0 .576-.57v-5.38h2.345v5.38c0 .326.247.57.576.57a.56.56 0 0 0 .576-.57v-5.38h2.345v5.38c0 .326.247.57.576.57a.56.56 0 0 0 .576-.57v-5.38h2.346v5.38c0 .326.247.57.576.57a.56.56 0 0 0 .576-.57v-5.38h3.168v10.842c0 .326.247.57.576.57a.56.56 0 0 0 .576-.57V14.57a.56.56 0 0 0-.576-.571H29.576a.56.56 0 0 0-.576.57v24.826a5.328 5.328 0 0 0 3.333 4.932l1.563.652c1.934.815 3.21 2.65 3.21 4.729v20.87c0 1.874 1.563 3.423 3.456 3.423 1.892 0 3.456-1.549 3.456-3.424v-16.1c-.041-.327-.33-.612-.658-.612z"/><path d="M57.422 28H40.578a.559.559 0 0 0-.578.566V47.46c0 1.7 1.032 3.237 2.642 3.884l1.197.485c1.445.607 2.354 1.942 2.354 3.48v15.94C46.193 72.746 47.43 74 49 74c1.528 0 2.807-1.214 2.807-2.751v-15.9c0-1.537.95-2.913 2.354-3.48l1.197-.485A4.186 4.186 0 0 0 58 47.5V28.566a.584.584 0 0 0-.578-.566zM57 47.674c0 1.253-.754 2.343-1.969 2.828l-1.214.485c-1.927.767-3.142 2.544-3.142 4.523v15.874c0 .889-.754 1.616-1.675 1.616s-1.675-.727-1.675-1.616V55.51c0-1.979-1.215-3.756-3.142-4.523l-1.214-.485C41.796 50.017 41 48.927 41 47.674V40h15.916v7.674H57zM57 39H41V29h1.6v4.17c0 .34.253.596.59.596a.579.579 0 0 0 .589-.596V29h1.558v4.17c0 .34.252.596.59.596a.579.579 0 0 0 .589-.596V29h1.558v4.17c0 .34.252.596.59.596a.579.579 0 0 0 .589-.596V29h1.558v4.17c0 .34.252.596.589.596.337 0 .59-.255.59-.596V29h1.557v4.17c0 .34.253.596.59.596.337 0 .59-.255.59-.596V29h2.189v10H57z"/></g></g></svg>