<svg id="illustration" class="anim hidden visible" width="320" viewBox="0 0 942 570" xmlns="http://www.w3.org/2000/svg"><style>.f0{fill:none}.f3{fill:#065466}.f5{fill:#9e7238}.f8{fill:#fff}.f11{fill:#0ccded}.s0{stroke:none}.s1{stroke-miterlimit:10;stroke:#065466}.s_w3{stroke-width:3}.s_w4{stroke-width:4}</style><g fill="#bde4e1"><path d="M451.7 388.4c15.3 0 27.8-12.5 27.8-27.8v-6.3c0-15.3-12.5-27.8-27.8-27.8H336.2c-15.3 0-27.8-12.5-27.8-27.8v-6.3c0-15.3 12.5-27.8 27.8-27.8h186c15.3 0 27.8-12.5 27.8-27.8v-6.4c0-15.3-12.5-27.8-27.8-27.8H154.3c-15.3 0-27.8 12.5-27.8 27.8v6.4c0 15.3 12.5 27.8 27.8 27.8h14.6c15.3 0 27.8 12.5 27.8 27.8v6.3c0 15.3-12.5 27.8-27.8 27.8H83.8C68.5 326.5 56 339 56 354.3v6.3c0 15.3 12.5 27.8 27.8 27.8h367.9zm5.5-.1H770c15.3 0 27.8-12.5 27.8-27.8v-6.3c0-15.3-12.5-27.8-27.8-27.8H598.5c15.3 0 27.8-12.5 27.8-27.8v-6.3c0-15.3-12.5-27.8-27.8-27.8H482.9c-15.3 0-152 .1-167.3.1h-85.1c-15.3 0-27.8 12.5-27.8 27.8v6.3c0 15.3 12.5 27.8 27.8 27.8 0 0 242 61.8 226.7 61.8zm378-.2c15.3 0 27.8-12.5 27.8-27.8V354c0-15.3-12.5-27.8-27.8-27.8h-85.1c-15.3 0-27.8-12.5-27.8-27.8v-6.3c0-15.3 12.5-27.8 27.8-27.8h14.6c15.3 0 27.8-12.5 27.8-27.8v-6.4c0-15.3-12.5-27.8-27.8-27.8H396.8c-15.3 0-27.8 12.5-27.8 27.8v6.4c0 15.3 12.5 27.8 27.8 27.8h186c15.3 0 27.8 12.5 27.8 27.8v6.3c0 15.3-12.5 27.8-27.8 27.8H467.3c-15.3 0-27.8 12.5-27.8 27.8v6.3c0 15.3 12.5 27.8 27.8 27.8h367.9z"/><circle cx="471" cy="274.5" r="250"/></g><path class="f8" d="M63 393.5h800v149.7H63z"/><path d="M595.8 512.4h-246c-1.1 0-2-.9-2-2s.9-2 2-2h246c1.1 0 2 .9 2 2s-.9 2-2 2zm-75.2 24.4h-96c-1.1 0-2-.9-2-2s.9-2 2-2h96c1.1 0 2 .9 2 2s-.9 2-2 2zM314.4 153.9H271c-1.4 0-2.5-1.1-2.5-2.5s1.1-2.5 2.5-2.5h43.4c1.4 0 2.5 1.1 2.5 2.5s-1.1 2.5-2.5 2.5zm23.2-5h10.7c1.4 0 2.5 1.1 2.5 2.5s-1.1 2.5-2.5 2.5h-21.4c-1.4 0-2.5-1.1-2.5-2.5s1.1-2.5 2.5-2.5h10.7m-75.5-13.7c-1.4 0-2.5-1.1-2.5-2.5s1.1-2.5 2.5-2.5H304c.9-6.9 5.3-12.9 11.7-15.7 1.4-16.4 15-29.1 31.7-29.1 10.1 0 19.4 4.7 25.4 12.7 3.2-2.2 6.9-3.3 10.8-3.3 9.7 0 17.8 7.1 19.1 16.5 8.5 2.5 14.8 10 15.8 18.8h51.8c1.4 0 2.5 1.1 2.5 2.5s-1.1 2.5-2.5 2.5h-54.2c-1.4 0-2.5-1.1-2.5-2.5 0-8.2-5.8-15.3-13.7-16.9-1.1-.2-1.9-1.2-2-2.3-.4-7.7-6.6-13.7-14.3-13.7-3.6 0-7 1.3-9.7 3.8-.5.5-1.3.7-2 .6s-1.4-.5-1.8-1.2c-4.9-7.9-13.4-12.6-22.7-12.6-14.5 0-26.3 11.4-26.8 25.9 0 1-.7 2-1.7 2.3-6 2-10.1 7.7-10.1 14 0 1.4-1.1 2.5-2.5 2.5l-44.2.2zm455.5 46.5c1.5 0 2.6-1.2 2.5-2.7-.1-1.3-1.3-2.3-2.7-2.3h-41.7c-.9-6.9-5.3-12.8-11.7-15.6-1.4-16.4-15-29.1-31.7-29.1-10.1 0-19.4 4.7-25.4 12.7h-.1c-3.2-2.2-6.9-3.3-10.8-3.3-9.7 0-17.7 7.1-19.1 16.5-8.5 2.5-14.7 10-15.7 18.8h-26.3c-1.3 0-2.6 1-2.7 2.3-.1 1.5 1 2.7 2.5 2.7h28.8c1.4 0 2.5-1.1 2.5-2.5 0-8.1 5.8-15.2 13.7-16.9 1.1-.2 2-1.1 2-2.3.3-7.7 6.6-13.7 14.3-13.7 3.6 0 7 1.3 9.7 3.8.5.5 1.3.7 2 .6s1.4-.5 1.8-1.2c4.9-7.9 13.4-12.6 22.7-12.6 14.5 0 26.3 11.4 26.8 25.9 0 1 .7 1.9 1.7 2.3 6 2 10 7.6 10.1 14 0 1.4 1.1 2.6 2.5 2.6h44.3z"/><g class="s0"><path d="M769.9 373.5c-7.1 0-12.9 5-12.9 11.2 0 2.2.7 4.3 2 6h-18v-16.4h-13.9v-61.6h-39.5v61.6h-13.8v16.4h-17.5c.5-1.1.8-2.3.8-3.5 0-4.4-3.7-8.1-8.5-8.6-1-7.8-8.3-13.8-17.2-13.8-6.9 0-12.9 3.6-15.7 8.9h-.4v-99.6h15l66.8-67.4 10.6-10.7 77.3 78.1h15V369c-1-.8-2.1-1.5-3.3-2.1-.2-.1-.5-.2-.7-.3l-1.5-.6c-.2-.1-.4-.1-.6-.2-1.2-.4-2.4-.6-3.7-.8-.5-.1-.9-.1-1.4-.1h-.9c-7.2 0-13.3 3.6-16.2 8.9-.6-.3-1.2-.3-1.8-.3zm11.3-28.1v-32.7h-34.9v32.7h34.9zm-58.9-69.2v-27.9h-29.8v27.9h29.8zm-53.6 69.2v-32.7h-34.9v32.7h34.9zm114.7-138.9v14.1h-17.3v-28.2h17.3z"/><path d="M746.3 312.6h34.9v32.7h-34.9zm-112.5 0h34.9v32.7h-34.9zm58.7-64.4h29.8v27.9h-29.8z" fill="#c3edf0"/><path d="M697.1 206.5l-66.8 67.4h-24.2v-67.4zm112.1 0v67.4H785l-66.8-67.4h47.9v14.1h17.3v-14.1zM687.6 312.6h39.5v61.6h-39.5zm53.4 61.7v16.3h-67.2v-16.3h53.3z"/><g class="f3"><path d="M615.3 276.3h-9.2c-1.3 0-2.4-1.1-2.4-2.4v-67.4c0-1.3 1.1-2.4 2.4-2.4h91c1.3 0 2.4 1.1 2.4 2.4 0 1.3-1.1 2.4-2.4 2.4h-88.6v62.6h6.8c1.3 0 2.4 1.1 2.4 2.4s-1.1 2.4-2.4 2.4zm193.9 0H800c-1.3 0-2.4-1.1-2.4-2.4s1.1-2.4 2.4-2.4h6.8v-62.6h-23.4c-1.3 0-2.4-1.1-2.4-2.4 0-1.3 1.1-2.4 2.4-2.4h25.8c1.3 0 2.4 1.1 2.4 2.4v67.4c0 1.4-1 2.4-2.4 2.4zm-24.2 0c-.6 0-1.2-.2-1.7-.7l-66.8-67.4c-.7-.7-.9-1.7-.5-2.6.4-.9 1.2-1.5 2.2-1.5h47.9c1.3 0 2.4 1.1 2.4 2.4 0 1.3-1.1 2.4-2.4 2.4H724l62.7 63.3c.9.9.9 2.5 0 3.4-.5.5-1.1.7-1.7.7zM673.8 393c-1.3 0-2.4-1.1-2.4-2.4v-16.4c0-1.3 1.1-2.4 2.4-2.4h13.8c1.3 0 2.4 1.1 2.4 2.4s-1.1 2.4-2.4 2.4h-11.5v14c.1 1.3-1 2.4-2.3 2.4zm67.2 0c-1.3 0-2.4-1.1-2.4-2.4v-14h-11.5c-1.3 0-2.4-1.1-2.4-2.4s1.1-2.4 2.4-2.4H741c1.3 0 2.4 1.1 2.4 2.4v16.4c0 1.3-1.1 2.4-2.4 2.4z"/><path d="M727.1 376.7h-39.5c-1.3 0-2.4-1.1-2.4-2.4v-61.6c0-1.3 1.1-2.4 2.4-2.4h39.5c1.3 0 2.4 1.1 2.4 2.4v61.6c0 1.3-1 2.4-2.4 2.4zm-37.1-4.8h34.7V315H690v56.9zm-21.3-24.1h-34.9c-1.3 0-2.4-1.1-2.4-2.4v-32.7c0-1.3 1.1-2.4 2.4-2.4h34.9c1.3 0 2.4 1.1 2.4 2.4v32.7c0 1.3-1.1 2.4-2.4 2.4zm-32.5-4.8h30.1v-28h-30.1v28zm145 4.8h-34.9c-1.3 0-2.4-1.1-2.4-2.4v-32.7c0-1.3 1.1-2.4 2.4-2.4h34.9c1.3 0 2.4 1.1 2.4 2.4v32.7c0 1.3-1.1 2.4-2.4 2.4zm-32.5-4.8h30.1v-28h-30.1v28zm-26.4-64.4h-29.8c-1.3 0-2.4-1.1-2.4-2.4v-27.9c0-1.3 1.1-2.4 2.4-2.4h29.8c1.3 0 2.4 1.1 2.4 2.4v27.9c0 1.3-1.1 2.4-2.4 2.4zm-27.4-4.8h25v-23.1h-25v23.1zm88.5-50.8h-17.3c-1.3 0-2.4-1.1-2.4-2.4v-28.3c0-1.3 1.1-2.4 2.4-2.4 1.3 0 2.4 1.1 2.4 2.4v25.9H781v-25.9c0-1.3 1.1-2.4 2.4-2.4 1.3 0 2.4 1.1 2.4 2.4v28.3c0 1.4-1 2.4-2.4 2.4z"/><path d="M791.8 194.8h-33.9c-1.3 0-2.4-1.1-2.4-2.4 0-1.3 1.1-2.4 2.4-2.4h33.9c1.3 0 2.4 1.1 2.4 2.4s-1.1 2.4-2.4 2.4zM829.3 393h-15.7c-1.3 0-2.4-1.1-2.4-2.4s1.1-2.4 2.4-2.4h15.7c1.3 0 2.4 1.1 2.4 2.4s-1.1 2.4-2.4 2.4zM604 393h-17c-1.3 0-2.4-1.1-2.4-2.4s1.1-2.4 2.4-2.4h17c1.3 0 2.4 1.1 2.4 2.4s-1.1 2.4-2.4 2.4z"/><path d="M656.3 393h-52.8c-.8 0-1.5-.4-1.9-1-1.6-2.2-2.4-4.8-2.4-7.4 0-7.5 6.7-13.6 14.9-13.6.5 0 1.1 0 1.6.1h.3c1.3.1 2.3 1.3 2.2 2.6-.1 1.3-1.3 2.3-2.6 2.1h-.3c-.4-.1-.8-.1-1.1-.1-5.6 0-10.1 3.9-10.1 8.8 0 1.2.3 2.5.9 3.6h51.4c1.3 0 2.4 1.1 2.4 2.4-.1 1.4-1.2 2.5-2.5 2.5zm157.3 0H759c-1.3 0-2.4-1.1-2.4-2.4s1.1-2.4 2.4-2.4h52.9c.1-.4.1-.7.1-1.1 0-3.1-2.9-5.8-6.6-6.2-1.1-.1-2-1-2.1-2.1-.4-3.1-2.1-6-4.8-8.1-1-.8-1.2-2.3-.4-3.4.8-1 2.3-1.2 3.4-.4 3.2 2.5 5.3 5.8 6.2 9.5 5.3 1.3 9.1 5.6 9.1 10.7 0 1.6-.4 3.1-1.1 4.6-.4.8-1.2 1.3-2.1 1.3z"/><path d="M759 393H656.3c-.8 0-1.6-.4-2-1.1s-.5-1.6-.1-2.3c.4-.8.6-1.6.6-2.4 0-3.1-2.7-5.8-6.3-6.2-1.1-.1-2-1-2.1-2.1-.8-6.7-7.2-11.7-14.9-11.7-5.8 0-11.1 3-13.6 7.6-.5.9-1.4 1.4-2.3 1.3h-.4c-1.2-.1-2.1-1.2-2.1-2.4v-99.6c0-1.3 1.1-2.4 2.4-2.4h14l76.6-77.4c.9-.9 2.5-.9 3.4 0l76.6 77.4h14c1.3 0 2.4 1.1 2.4 2.4V369c0 .9-.5 1.8-1.4 2.2-.8.4-1.8.3-2.5-.3-.9-.7-1.8-1.3-2.9-1.8l-.6-.3c-.5-.2-.9-.4-1.3-.5l-.6-.2c-1-.3-2.1-.5-3.2-.7-.4 0-.8-.1-1.2-.1h-.8c-6 0-11.5 3-14.1 7.6-.5.9-1.4 1.3-2.4 1.2-.4-.1-1-.1-1.5-.1-5.8 0-10.5 3.9-10.5 8.8 0 1.6.5 3.2 1.5 4.6.5.7.6 1.7.2 2.5-.4.6-1.2 1.1-2.2 1.1zm-99.6-4.8h95.8c-.4-1.2-.5-2.4-.5-3.6 0-7.5 6.9-13.6 15.3-13.6h.5c3.7-5.4 10.2-8.8 17.5-8.8h1c.5 0 1 .1 1.6.1 1.4.2 2.8.4 4.1.8l.7.2c.7.2 1.2.5 1.8.7l.6.3v-88.2H785c-.6 0-1.3-.3-1.7-.7L707.7 199 632 275.6c-.4.5-1.1.7-1.7.7h-12.6v91c3.6-3.1 8.5-5 13.7-5 9.4 0 17.4 6 19.3 14.1 5.1 1.3 8.8 5.6 8.8 10.7 0 .4 0 .8-.1 1.1z"/><path d="M813.8 393h-737c-.8 0-1.5-.7-1.5-1.5v-2c0-.8.7-1.5 1.5-1.5h737c.8 0 1.5.7 1.5 1.5v2c0 .8-.6 1.5-1.5 1.5z"/></g></g><path d="M312.3 294.9c-9.6 29.5-49 40.9-75.9 29.5-19.7-8.3-36.2-35.2-25.9-54.9 10.4-19.7 31.1-33.1 52.8-35.2 28-1 54.9 23.8 51.1 51.4-.3 3.1-1 6.1-2.1 9.2m39.5 43.5c-4.8 14.8-24.5 20.5-37.9 14.8-9.8-4.1-18.1-17.6-12.9-27.4s15.5-16.6 26.4-17.6c14-.5 27.4 11.9 25.5 25.7-.2 1.5-.5 3-1.1 4.5m279.6 26.3c8.9 0 16.3 6 17.2 13.8 4.8.5 8.5 4.2 8.5 8.6 0 1.2-.3 2.4-.8 3.5h-52.8c-1.2-1.7-2-3.8-2-6 0-6.2 5.6-11.2 12.5-11.2.4 0 .9 0 1.3.1h.4c2.8-5.2 8.8-8.8 15.7-8.8zM757 384.6c0-6.2 5.8-11.2 12.9-11.2.6 0 1.2.1 1.7.1 2.9-5.2 9-8.9 16.2-8.9h.9c.5 0 .9.1 1.4.1 1.3.1 2.5.4 3.7.8.2.1.4.1.6.2l1.5.6c.2.1.5.2.7.3 1.2.6 2.3 1.3 3.3 2.1 3.1 2.5 5.2 5.9 5.7 9.7 4.9.5 8.8 4.2 8.8 8.6 0 1.2-.3 2.4-.9 3.5H759c-1.2-1.6-2-3.7-2-5.9z" fill="#45d1a6"/><g class="f3 s1"><path d="M294.3 308.2c-.1.4-3.6 8.6-14.2 6.1-2.2-.5-3.9-1.3-5.3-2.4 3.1-2 5.6-4.4 7.1-6.5 4.4-6 5.5-11.5 5.6-11.7l-2-.4c0 .1-1.1 5.2-5.2 10.9-1.5 2.1-3.9 4.4-7 6.3-4.2-4.6-3.4-11.2-3.3-11.6l-2.1-.3c0 .1-1 7.6 3.6 12.9-5.2 2.7-11.8 4.3-19.2 2.5-3.7-.9-6.5-2.6-8.5-4.7 1.7-.5 3.2-1.5 4.3-2.8 3-3.7 2.4-9 2.4-9.2l-2.1.2s.5 4.7-2 7.7c-1 1.2-2.4 2-4.2 2.4-3.5-4.5-4.2-9.6-4.2-10l-2.1.2c0 .1.6 5.1 3.9 9.9-7.6-.1-10.4-6.5-10.5-6.7l-1.9.8c0 .1 3.4 8 12.6 8 .4 0 .8 0 1.3-.1h.1c2.4 2.7 5.7 5.1 10.4 6.2 2 .5 2.5.7 4.4.8l1.4 73.3 3.1.4-.9-73.7c5-.2 9.5-1.7 13.2-3.8 1.7 1.4 3.8 2.6 6.7 3.3 1.5.4 2.9.5 4.2.5 9.1 0 12.4-7.8 12.4-7.9l-2-.6z"/><g class="s0"><path d="M337.7 338.7l-2-.5s-1.3 4.5-4.7 6.4c-1.4.8-3 1-4.8.6-1.6-5.5-.3-10.5-.2-10.8l-2-.5c0 .1-1.3 5-.1 10.7-7-2.9-7.2-9.9-7.2-10.2h-2.1c0 .1.2 8.7 8.6 12.2.4.2.8.3 1.2.4h.1l2.4.5s3.5-.2 5-1c4.3-2.4 5.7-7.6 5.8-7.8z"/><path d="M325.3 346.1h3.8v45.6h-3.8z"/></g></g><g class="s1 s_w4"><path d="M500 297.5s25.6 9.9 23.6 73.4h-12.9l-8.3-12.5-2.4-60.9z" fill="#095f6d"/><path class="f3" d="M480.2 290h-15.1c-12.6 0-23.5 7.9-27.9 19h-37.8c-8.5 0-8.5-9.9-8.5-9.9v-35.6h-19.5v38.8c0 26.6 27.8 26.5 27.8 26.5h35.9v59.5l75.1.5V320c0-16.5-13.5-30-30-30z"/><g class="f5"><path d="M505.3 240.5s1.3 6.5 0 8.3-1.9 2.7-3.6 2.9c-1.8.2-6.8 0-6.8 0l-.8-14.1 8.7-.7 2.5 3.6z"/><path d="M507 203.8c-3.4-3.9-3.9 0-3.9 0s.5 6.7 0 9.1c-.5 2.4-2.9 3.5-7.3 3.5-4.3 0-13.5-1.9-23.6-2.9s-13.2-.5-17.1 0c-3.8.5-5.3 10.2-5.3 10.2l-5.3-.5c-5.3-.5-6.3 6.8-6.3 6.8s-.5 13.5 0 17.4 6.3 4.4 6.3 4.4l55.2-9.7s4.4-.5 10.2-3.9 2.9-3.9 6.3-11.3-5.8-19.2-9.2-23.1z"/><path class="f0" d="M460 225.2c0 3 1.4 5.4 3 5.4"/></g><g fill="#fbeed0"><path d="M462 230s-16.7 6.3-16.7 21.8v56.7l54.5 1v-67.4L462 230zm-71 30.5s-1.7-17.7-13.3-17.7l.4 17.7H391zm132.6 110.4s-1.7 17.7-13.3 17.7l.4-17.7h12.9z"/><path d="M445.1 255.4s-6-1.6-6.3 1.7c-.3 3.3 0 6.7 0 6.7s-.5 1.9 3.1 1.9 3.6.1 3.6.1l-.4-10.4zm55 0s6-1.6 6.3 1.7c.3 3.3 0 6.7 0 6.7s.5 1.9-3.1 1.9l-3.6.1.4-10.4z"/></g><g class="f0 s_w3"><path d="M480.8 248.9h11.3m-25 0h-10m17.7 0v20.8m-7.7-1.5h8.7"/><path d="M482.5 255.1h4m-28-2.3h3.6" stroke-width="2"/></g><path d="M449.7 368.2v-51.8m43.9 49.5v-50.4" stroke="#fff" stroke-miterlimit="10"/><g class="f8"><path d="M435.1 366.4h75.1v121h-75.1z"/><path class="s0" d="M447.7 336h48v28.8h-48z"/></g><g class="f3 s0"><path d="M470.8 405.5h4v82h-4z"/><path d="M435.1 487.5s1.6-17.1 18.9-17.1 17.3 17.1 17.3 17.1h-36.2zm38.9 0s1.6-17.1 18.9-17.1 17.3 17.1 17.3 17.1H474z"/></g><path class="f5" d="M499.9 309.5c-.3-5.5 0-29 0-29s-4.4 1.2-6.8 0c-2.3-1.2-9.2-6-12.3-6s-7.3 4.8-8.2 4.8-4.2-4.7-8.2-4.8-10.3 5.7-12.5 5.7-6.5-.2-6.5-.2v1.2h.1v23s-.3 2.5 0 5.7 1 6.8 8.3 8.7c7.3 1.8 9.3 5 16 5.3s6.8-1.2 12.7-2.3c5.8-1.2 7.7-1 11.5-3.8s6.2-2.8 5.9-8.3z"/><path class="s_w3" d="M466.1 286.5h13s-.3 6.8-6.5 7c-6.1.2-6.5-7-6.5-7z" fill="#ffabeb"/></g><g class="s0"><g class="f3"><path d="M348.1 211.8c-1.1 0-2-.9-2-2v-24.1c0-1.1.9-2 2-2h57.7c1.1 0 2 .9 2 2v24.1c0 1.1-.9 2-2 2h-57.7z"/>--&gt;<path d="M405.8 185.7v24.1h-57.7v-24.1h57.7m0-4h-57.7c-2.2 0-4 1.8-4 4v24.1c0 2.2 1.8 4 4 4h57.7c2.2 0 4-1.8 4-4v-24.1c0-2.2-1.8-4-4-4z"/><path d="M378.3 242.8h-2.8v-8.9c0-3 2-5.7 4.9-6.6l33.2-10.1c1.2-.4 2-1.5 2-2.7V202c0-1.6-1.3-2.8-2.8-2.8h-4.3v-2.8h4.3c3.1 0 5.7 2.5 5.7 5.7v12.4c0 2.5-1.6 4.7-4 5.4L381.2 230c-1.7.5-2.8 2.1-2.8 3.9l-.1 8.9z"/></g><path class="f11" d="M402.9 209.7H351c-1.6 0-2.9-1.3-2.9-2.7v-18.6c0-1.5 1.2-2.7 2.9-2.7h51.9c1.6 0 2.9 1.2 2.9 2.7V207c-.1 1.5-1.3 2.7-2.9 2.7z"/></g><path d="M378.9 484h-4c-2.2 0-4-2.8-4-6.2V249c0-3.4 1.8-6.2 4-6.2h4c2.2 0 4 2.8 4 6.2v229c0 3.2-1.8 6-4 6z"/><g class="f0 s1 s_w4"><circle cx="561.3" cy="435.9" r="28.6"/><g class="f8"><path d="M532.7 437.9v45.3s.7 7.2 28.4 7.2 28.8-6.4 28.8-6.4v-46.1h-57.2z"/><ellipse cx="561.3" cy="437.2" rx="28.6" ry="6.6"/></g><path class="f11" d="M549.3 443.8v17.1s.3 3.2 3.2 3.2 2.9-3.2 2.9-3.2v-3.8s-.1-2.4 1.8-2.4c1.9 0 2.2 2.4 2.2 2.4v8.2s.1 3.3 2.9 3.3 2.7-3.3 2.7-3.3-.6-2.4.6-3.6c.5-.5 2.2-.6 2.9-1.5.8-1.2.6-3.2.6-3.2v-12.6l-19.8-.6z"/></g></svg>