<svg width="30px" height="30px" viewBox="0 0 30 30" version="1.1" xmlns="http://www.w3.org/2000/svg" xmlns:xlink="http://www.w3.org/1999/xlink">
  <g transform="translate(-44,-14)">
    <path fill="#065466" d="M54.1171875,18.9726562 C54.4817727,19.4804713 54.8821593,20.0598926 55.3183594,20.7109375 C55.7545595,21.3619824 56.22656,22.0846314 56.734375,22.8789062 C56.864584,23.0872406 56.919922,23.3216133 56.9003906,23.5820312 C56.8808593,23.8424492 56.7864592,24.1223943 56.6171875,24.421875 C56.552083,24.552084 56.441407,24.7604152 56.2851562,25.046875 C56.1289055,25.3333348 55.9270846,25.7044248 55.6796875,26.1601562 C55.9531264,26.5507832 56.3014302,26.9869768 56.7246094,27.46875 C57.1477886,27.9505232 57.6393201,28.4713514 58.1992188,29.03125 C58.7721383,29.6041695 59.2962216,30.1022114 59.7714844,30.5253906 C60.2467472,30.9485698 60.6731752,31.2968736 61.0507812,31.5703125 C61.4934918,31.3098945 61.8613267,31.0983081 62.1542969,30.9355469 C62.4472671,30.7727856 62.6588535,30.6588545 62.7890625,30.59375 C62.9453133,30.5026037 63.1048169,30.434245 63.2675781,30.3886719 C63.4303394,30.3430987 63.5833326,30.3203125 63.7265625,30.3203125 C63.8437506,30.3203125 63.9511714,30.3333332 64.0488281,30.359375 C64.1464849,30.3854168 64.240885,30.4244789 64.3320312,30.4765625 C64.9179717,30.8281268 65.5364551,31.222003 66.1875,31.6582031 C66.8385449,32.0944032 67.5351525,32.5729141 68.2773438,33.09375 C68.4075527,33.1848963 68.5117184,33.3020826 68.5898438,33.4453125 C68.6679691,33.5885424 68.720052,33.7447908 68.7460938,33.9140625 C68.7591146,34.0963551 68.7395836,34.2819001 68.6875,34.4707031 C68.6354164,34.6595062 68.5442715,34.8515615 68.4140625,35.046875 C68.3619789,35.1380213 68.2838547,35.2486973 68.1796875,35.3789062 C68.0755203,35.5091152 67.9518236,35.6588533 67.8085938,35.828125 C67.6783848,35.9973967 67.5091156,36.1894521 67.3007812,36.4042969 C67.0924469,36.6191417 66.8450535,36.8567695 66.5585938,37.1171875 C66.2851549,37.3776055 66.0345063,37.572916 65.8066406,37.703125 C65.5787749,37.833334 65.3802092,37.8984375 65.2109375,37.8984375 L65.171875,37.8984375 C64.4947883,37.8723957 63.78516,37.7259128 63.0429688,37.4589844 C62.3007775,37.192056 61.5195354,36.8112004 60.6992188,36.3164062 C59.8789021,35.8216121 59.0195357,35.2031287 58.1210938,34.4609375 C57.2226518,33.7187463 56.2851611,32.8658902 55.3085938,31.9023438 C54.3320264,30.9257764 53.4759151,29.9882857 52.7402344,29.0898438 C52.0045536,28.1914018 51.3860702,27.3320354 50.8847656,26.5117188 C50.383461,25.6914021 50.0026055,24.9069048 49.7421875,24.1582031 C49.4817695,23.4095015 49.3385418,22.7031283 49.3125,22.0390625 C49.3125,21.8567699 49.3776035,21.6516938 49.5078125,21.4238281 C49.6380215,21.1959624 49.833332,20.9388035 50.09375,20.6523438 C50.354168,20.365884 50.5885406,20.1217458 50.796875,19.9199219 C51.0052094,19.7180979 51.1940096,19.552084 51.3632812,19.421875 C51.519532,19.3046869 51.6692701,19.1940109 51.8125,19.0898438 C51.9557299,18.9856766 52.0794266,18.8945316 52.1835938,18.8164062 C52.3268236,18.7122391 52.4765617,18.63737 52.6328125,18.5917969 C52.7890633,18.5462237 52.9583324,18.5234375 53.140625,18.5234375 C53.3489594,18.5234375 53.5345044,18.5592444 53.6972656,18.6308594 C53.8600269,18.7024743 53.9999994,18.8164055 54.1171875,18.9726562 Z M52.8671875,19.7734375 C52.6067695,19.9557301 52.3528658,20.1542958 52.1054688,20.3691406 C51.8580717,20.5839854 51.6171887,20.8085926 51.3828125,21.0429688 C51.1484363,21.2773449 50.9628913,21.4791658 50.8261719,21.6484375 C50.6894524,21.8177092 50.6015627,21.9609369 50.5625,22.078125 C50.5885418,22.6640654 50.7252592,23.2890592 50.9726562,23.953125 C51.2200533,24.6171908 51.5781227,25.323564 52.046875,26.0722656 C52.5156273,26.8209673 53.0950486,27.6087198 53.7851562,28.4355469 C54.4752639,29.2623739 55.2760371,30.1315059 56.1875,31.0429688 C57.0989629,31.9544316 57.9680948,32.7552049 58.7949219,33.4453125 C59.6217489,34.1354201 60.4095015,34.7148414 61.1582031,35.1835938 C61.9069048,35.6523461 62.6165331,36.0104154 63.2871094,36.2578125 C63.9576856,36.5052096 64.5859346,36.6484373 65.171875,36.6875 C65.2630213,36.6484373 65.3932283,36.5572924 65.5625,36.4140625 C65.7317717,36.2708326 65.9335926,36.0820324 66.1679688,35.8476562 C66.4023449,35.6132801 66.6236969,35.3691419 66.8320312,35.1152344 C67.0403656,34.8613269 67.2421865,34.604168 67.4375,34.34375 C67.4765627,34.2916664 67.5026041,34.2428388 67.515625,34.1972656 C67.5286459,34.1516925 67.5286459,34.1093752 67.515625,34.0703125 C66.7604129,33.5364557 66.0670604,33.0612 65.4355469,32.6445312 C64.8040333,32.2278625 64.2343775,31.8567725 63.7265625,31.53125 C63.6744789,31.53125 63.6158857,31.5410155 63.5507812,31.5605469 C63.4856768,31.5800782 63.4140629,31.6093748 63.3359375,31.6484375 C63.2317703,31.713542 63.0364598,31.824218 62.75,31.9804688 C62.4635402,32.1367195 62.0924502,32.3385404 61.6367188,32.5859375 L60.9921875,32.9765625 L60.3476562,32.546875 C59.9309875,32.2604152 59.4720077,31.8925804 58.9707031,31.4433594 C58.4693985,30.9941384 57.9192738,30.4700551 57.3203125,29.8710938 C56.7343721,29.2721324 56.2200543,28.7220077 55.7773438,28.2207031 C55.3346332,27.7193985 54.9700535,27.2604187 54.6835938,26.84375 L54.2148438,26.2382812 L54.6054688,25.5546875 C54.8528658,25.0989561 55.0546867,24.7311212 55.2109375,24.4511719 C55.3671883,24.1712226 55.4778643,23.9726568 55.5429688,23.8554688 C55.5820314,23.7773434 55.611328,23.7057295 55.6308594,23.640625 C55.6503907,23.5755205 55.6601562,23.5169273 55.6601562,23.4648438 C55.2044248,22.7486943 54.7714864,22.0781281 54.3613281,21.453125 C53.9511698,20.8281219 53.5572936,20.2421902 53.1796875,19.6953125 L53.140625,19.6953125 C53.0885414,19.6953125 53.0397138,19.7018229 52.9941406,19.7148438 C52.9485675,19.7278646 52.9062502,19.7473957 52.8671875,19.7734375 Z"></path>
  </g>
</svg>