<svg width="30" height="30" xmlns="http://www.w3.org/2000/svg"><path fill="#065466" d="M10.117 4.973c.365.507.765 1.087 1.201 1.738.437.651.909 1.374 1.416 2.168.13.208.186.443.166.703-.02.26-.114.54-.283.84-.065.13-.176.338-.332.625l-.605 1.113c.273.39.621.827 1.045 1.309.423.482.914 1.002 1.474 1.562a37.866 37.866 0 0 0 1.572 1.494c.476.424.902.772 1.28 1.045.442-.26.81-.472 1.103-.634.293-.163.505-.277.635-.342a2.04 2.04 0 0 1 .479-.205c.162-.046.315-.069.459-.069a1.184 1.184 0 0 1 .605.156c.586.352 1.204.746 1.855 1.182.652.436 1.348.915 2.09 1.436.13.09.235.208.313.351.078.144.13.3.156.47.013.181-.006.367-.058.556-.053.189-.144.38-.274.576-.052.091-.13.202-.234.332a21.5 21.5 0 0 1-.371.45c-.13.168-.3.36-.508.575-.209.215-.456.453-.742.713a4.06 4.06 0 0 1-.752.586c-.228.13-.427.195-.596.195h-.04a7.098 7.098 0 0 1-2.128-.439 13.285 13.285 0 0 1-2.344-1.143 21.652 21.652 0 0 1-2.578-1.855 43.297 43.297 0 0 1-2.812-2.559A38.575 38.575 0 0 1 8.74 15.09a23.234 23.234 0 0 1-1.855-2.578 12.292 12.292 0 0 1-1.143-2.354c-.26-.748-.403-1.455-.43-2.119 0-.182.066-.387.196-.615a4.53 4.53 0 0 1 .586-.772c.26-.286.495-.53.703-.732.208-.202.397-.368.566-.498.157-.117.306-.228.45-.332.143-.104.266-.195.37-.274.144-.104.294-.179.45-.224.156-.046.325-.069.508-.069.208 0 .394.036.556.108.163.071.303.185.42.342zm-1.25.8c-.26.183-.514.381-.762.596-.247.215-.488.44-.722.674a8.02 8.02 0 0 0-.557.605c-.137.17-.224.313-.263.43.026.586.162 1.211.41 1.875.247.664.605 1.37 1.074 2.12a21.702 21.702 0 0 0 1.738 2.363c.69.826 1.491 1.696 2.402 2.607a39.858 39.858 0 0 0 2.608 2.402c.827.69 1.615 1.27 2.363 1.739.749.468 1.459.826 2.13 1.074.67.247 1.298.39 1.884.43.091-.04.221-.13.39-.274.17-.143.372-.332.606-.566.234-.235.456-.479.664-.733.208-.254.41-.51.605-.771a.444.444 0 0 0 .079-.147.21.21 0 0 0 0-.127 79.13 79.13 0 0 0-2.08-1.425c-.632-.417-1.202-.788-1.71-1.114a.6.6 0 0 0-.175.03c-.065.02-.137.048-.215.087-.104.066-.3.176-.586.332-.286.157-.658.359-1.113.606l-.645.39-.644-.43a13.954 13.954 0 0 1-1.377-1.103 42.053 42.053 0 0 1-1.65-1.572 45.31 45.31 0 0 1-1.544-1.65c-.442-.502-.807-.96-1.093-1.377l-.47-.606.391-.683a112.064 112.064 0 0 1 .938-1.7c.039-.078.068-.15.088-.214a.619.619 0 0 0 .03-.176c-.457-.716-.89-1.387-1.3-2.012-.41-.625-.804-1.21-1.181-1.758h-.04c-.051 0-.1.007-.146.02a.45.45 0 0 0-.127.058z"/></svg>