<svg width="87" height="87" xmlns="http://www.w3.org/2000/svg"><g fill="none" fill-rule="evenodd"><circle fill="#073649" cx="43.5" cy="43.5" r="43.5"/><g fill="#FFF" fill-rule="nonzero"><path d="M55.472 44.144h1.632c-.24-1.152-.672-2.016-1.296-2.64-.624-.624-1.44-1.008-2.496-1.152v-1.296h-1.056v1.248c-.528.048-1.056.144-1.536.384-.48.192-.912.48-1.248.816a3.754 3.754 0 0 0-.816 1.248 4.228 4.228 0 0 0-.288 1.584c0 .576.096 1.056.24 1.44.144.384.384.72.72 1.008.336.288.72.528 1.248.72.48.192 1.104.384 1.776.528v5.088c-.768-.144-1.392-.432-1.92-.96-.528-.48-.768-1.2-.816-2.064h-1.632c.096 1.344.528 2.4 1.296 3.168.768.768 1.776 1.2 3.072 1.344v1.584h1.056v-1.584a5.76 5.76 0 0 0 1.68-.384 4.2 4.2 0 0 0 1.344-.816c.384-.336.672-.768.864-1.248a4.55 4.55 0 0 0 .336-1.68c0-.576-.096-1.104-.336-1.536-.24-.432-.48-.768-.816-1.056-.336-.288-.672-.48-1.008-.672-.336-.144-.672-.288-.912-.336l-1.152-.288V41.84c1.104.288 1.824 1.056 2.064 2.304zm-3.216 2.208a9.062 9.062 0 0 1-.864-.288c-.288-.096-.48-.24-.72-.432-.192-.144-.336-.336-.48-.576a2.325 2.325 0 0 1-.144-.864c0-.72.192-1.296.624-1.68.432-.384.96-.576 1.584-.672v4.512zm2.064 2.352c.288.144.576.288.768.432.24.192.384.384.528.624.144.24.192.576.192.912 0 .432-.048.768-.192 1.056-.144.288-.288.576-.528.768-.24.192-.48.336-.768.432-.288.096-.624.144-1.008.192v-4.752c.336.096.672.192 1.008.336zM31.184 27.968h25.104v1.44H31.184z"/><path d="M63.44 20.24H20.288v1.44h3.024v41.616c0 .24.096.432.288.576l4.944 3.648a.72.72 0 0 0 .864 0l4.512-3.312 4.512 3.312a.72.72 0 0 0 .864 0l4.512-3.312 4.512 3.312a.774.774 0 0 0 .432.144.774.774 0 0 0 .432-.144l4.512-3.312 4.512 3.312a.72.72 0 0 0 .864 0l4.944-3.648a.684.684 0 0 0 .288-.576V21.68h3.024v-1.44H63.44zm-.72 42.72l-4.224 3.12-4.512-3.312a.774.774 0 0 0-.432-.144.774.774 0 0 0-.432.144l-4.464 3.312-4.512-3.312c-.24-.192-.576-.192-.864 0l-4.512 3.312-4.512-3.312a.72.72 0 0 0-.864 0l-4.464 3.312-4.224-3.12V21.68H62.72v41.28z"/><path d="M31.184 33.152h25.104v1.44H31.184zm0 5.184h13.2v1.44h-13.2zm0 5.184h13.2v1.44h-13.2zm0 5.184h13.2v1.44h-13.2zm0 5.184h13.2v1.44h-13.2z"/></g></g></svg>