<svg width="18" height="18" xmlns="http://www.w3.org/2000/svg"><circle cx="9" cy="9" r="8" fill="#FFF"/><path fill="#75DCBD" d="M14.33 7.05a.73.73 0 0 0-.2-.514L13.113 5.53a.71.71 0 0 0-.502-.212.71.71 0 0 0-.503.212l-4.553 4.543L5.033 7.55a.71.71 0 0 0-.502-.212.71.71 0 0 0-.502.212L3.013 8.556a.726.726 0 0 0-.2.513.7.7 0 0 0 .2.502l4.04 4.04a.73.73 0 0 0 .503.213c.19 0 .38-.078.513-.212l6.06-6.06a.7.7 0 0 0 .201-.503zm2.813 1.807A8.574 8.574 0 0 1 8.57 17.43 8.574 8.574 0 0 1 0 8.857 8.574 8.574 0 0 1 8.571.286a8.574 8.574 0 0 1 8.572 8.571z"/></svg>