<svg id="loader_checkmark" class="anim visible" width="42px" height="33px" viewBox="0 0 42 33" version="1.1" xmlns="http://www.w3.org/2000/svg" xmlns:xlink="http://www.w3.org/1999/xlink">
  <g transform="translate(-168.000000,-209.000000)">
    <path fill="#46D0A6" d="M209.758982,216.017826 C209.758982,215.348183 209.491124,214.678539 209.008981,214.196395 L205.36612,210.553534 C204.883976,210.071391 204.214332,209.803533 203.544689,209.803533 C202.875045,209.803533 202.205401,210.071391 201.723258,210.553534 L184.151809,228.151769 L176.276799,220.249974 C175.794656,219.767831 175.125012,219.499973 174.455368,219.499973 C173.785725,219.499973 173.116081,219.767831 172.633938,220.249974 L168.991076,223.892836 C168.508933,224.374979 168.241075,225.044623 168.241075,225.714266 C168.241075,226.38391 168.508933,227.053554 168.991076,227.535697 L182.330378,240.874999 C182.812521,241.357142 183.482165,241.625 184.151809,241.625 C184.821452,241.625 185.491096,241.357142 185.973239,240.874999 L209.008981,217.839257 C209.491124,217.357113 209.758982,216.68747 209.758982,216.017826 Z"></path>
  </g>
</svg>